<svg width="24" height="24" viewBox="0 0 24 24" fill="none" xmlns="http://www.w3.org/2000/svg">
<path d="M5.42058 9.34552C5.38038 9.50633 5.40814 9.67761 5.49728 9.81878C5.58643 9.95994 5.72902 10.0584 5.89126 10.0908L8.39139 10.5906C8.70141 10.6526 9.00266 10.4616 9.07953 10.1543L9.57986 8.15442L10.0802 6.15451C10.1526 5.86521 10.0026 5.56341 9.72804 5.44591C8.7864 5.04291 8.16179 4.893 7.70907 4.85822C7.47849 4.84051 7.30283 4.85347 7.16533 4.87139C7.12253 4.87697 7.07418 4.88448 7.04253 4.88939C7.03146 4.89111 7.02244 4.89251 7.01641 4.8934C6.99819 4.89609 6.98914 4.89708 6.9862 4.8974C6.7179 4.90016 6.48634 5.08322 6.42081 5.34529L5.42058 9.34552Z" fill="#E1E1FF" stroke="#6161FF" stroke-width="1.2" stroke-linecap="round" stroke-linejoin="round"/>
<path d="M6.23657 4.3938L6.24686 4.39684L6.25714 4.39987L6.2674 4.4029L6.27764 4.40593L6.28787 4.40895L6.29807 4.41197L6.30826 4.41498L6.31844 4.41798L6.32859 4.42098L6.33873 4.42398L6.34886 4.42697L6.35896 4.42995L6.36905 4.43294L6.37912 4.43591L6.38918 4.43888L6.39921 4.44185L6.40924 4.44481L6.41924 4.44776L6.42923 4.45071L6.4392 4.45366L6.44916 4.4566L6.4591 4.45954L6.46902 4.46247L6.47893 4.4654L6.48882 4.46832L6.4987 4.47124L6.50856 4.47415L6.5184 4.47706L6.52823 4.47996L6.53804 4.48286L6.54784 4.48575L6.55762 4.48864L6.56738 4.49153L6.57713 4.49441L6.58687 4.49729L6.59659 4.50016L6.60629 4.50302L6.61598 4.50589L6.62566 4.50874L6.63532 4.5116L6.64496 4.51445L6.65459 4.51729L6.6642 4.52013L6.67381 4.52297L6.68339 4.5258L6.69296 4.52863L6.70252 4.53145L6.71206 4.53427L6.72159 4.53709L6.7311 4.5399L6.7406 4.5427L6.75008 4.5455L6.75956 4.5483L6.76901 4.5511L6.77846 4.55389L6.78788 4.55667L6.7973 4.55945L6.8067 4.56223L6.81609 4.565L6.82546 4.56777L6.83482 4.57054L6.84417 4.5733L6.8535 4.57606L6.86282 4.57881L6.87213 4.58156L6.88143 4.58431L6.89071 4.58705L6.89997 4.58979L6.90923 4.59252L6.91847 4.59525L6.9277 4.59798L6.93692 4.6007L6.94612 4.60342L6.95531 4.60613L6.96449 4.60885L6.97365 4.61155L6.98281 4.61426L6.99195 4.61696L7.00108 4.61965L7.01019 4.62235L7.0193 4.62504L7.02839 4.62772L7.03747 4.63041L7.04654 4.63309L7.05559 4.63576L7.06464 4.63843L7.07367 4.6411L7.08269 4.64377L7.0917 4.64643L7.1007 4.64909L7.10969 4.65174L7.11866 4.65439L7.12763 4.65704L7.13658 4.65969L7.14552 4.66233L7.15445 4.66497L7.16337 4.6676L7.17228 4.67023L7.18117 4.67286L7.19006 4.67549L7.19894 4.67811L7.2078 4.68073L7.21666 4.68334L7.2255 4.68596L7.23433 4.68857L7.24316 4.69117L7.25197 4.69377L7.26077 4.69638L7.26956 4.69897L7.27834 4.70157L7.28712 4.70416L7.29588 4.70675L7.30463 4.70933L7.31337 4.71192L7.3221 4.71449L7.33083 4.71707L7.33954 4.71965L7.34824 4.72222L7.35693 4.72479L7.36562 4.72735L7.37429 4.72991L7.38296 4.73247L7.39161 4.73503L7.40026 4.73759L7.4089 4.74014L7.41753 4.74269L7.42615 4.74523L7.43476 4.74778L7.44336 4.75032L7.45195 4.75286L7.46054 4.75539L7.46911 4.75793L7.47768 4.76046L7.48624 4.76299L7.49479 4.76551L7.50333 4.76804L7.51187 4.77056L7.52039 4.77307L7.52891 4.77559L7.53742 4.77811L7.54592 4.78062L7.55441 4.78313L7.5629 4.78563L7.57138 4.78814L7.57985 4.79064L7.58831 4.79314L7.59676 4.79564L7.60521 4.79813L7.61365 4.80063L7.62208 4.80312L7.63051 4.80561L7.63892 4.80809L7.64734 4.81058L7.65574 4.81306L7.66413 4.81554L7.67252 4.81802L7.68091 4.8205L7.68928 4.82297L7.69765 4.82544L7.70601 4.82791L7.71437 4.83038L7.72272 4.83285L7.73106 4.83531L7.7394 4.83778L7.74773 4.84024L7.75605 4.84269L7.76437 4.84515L7.77268 4.84761L7.78098 4.85006L7.78928 4.85251L7.79757 4.85496L7.80586 4.85741L7.81414 4.85986L7.82242 4.8623L7.83069 4.86475L7.83895 4.86719L7.84721 4.86963L7.85546 4.87207L7.86371 4.8745L7.87196 4.87694L7.88019 4.87937L7.88842 4.8818L7.89665 4.88423L7.90487 4.88666L7.91309 4.88909L7.9213 4.89152L7.92951 4.89394L7.93771 4.89636L7.94591 4.89879L7.9541 4.90121L7.96229 4.90363L7.97048 4.90604L7.97866 4.90846L7.98683 4.91087L7.995 4.91329L8.00317 4.9157L8.01133 4.91811L8.01949 4.92052L8.02765 4.92293L8.0358 4.92534L8.04394 4.92775L8.05209 4.93015L8.06023 4.93256L8.06836 4.93496L8.07649 4.93736L8.08462 4.93977L8.09275 4.94217L8.10087 4.94457L8.10899 4.94696L8.1171 4.94936L8.12522 4.95176L8.13332 4.95415L8.14143 4.95655L8.14953 4.95894L8.15763 4.96133L8.16573 4.96373L8.17383 4.96612L8.18192 4.96851L8.19001 4.9709L8.19809 4.97329L8.20618 4.97568L8.21426 4.97806L8.22234 4.98045L8.23041 4.98284L8.23849 4.98522L8.24656 4.98761L8.25463 4.98999L8.2627 4.99237L8.27077 4.99476L8.27883 4.99714L8.2869 4.99952L8.29496 5.0019L8.30302 5.00428L8.31107 5.00667L8.31913 5.00905L8.32719 5.01143L8.33524 5.0138L8.34329 5.01618L8.35134 5.01856L8.35939 5.02094L8.36744 5.02332L8.37549 5.0257L8.38354 5.02807L8.39158 5.03045L8.39963 5.03283L8.40767 5.0352L8.41572 5.03758L8.42376 5.03996L8.4318 5.04233L8.43984 5.04471L8.44788 5.04708L8.45593 5.04946L8.46397 5.05183L8.47201 5.05421L8.48005 5.05658L8.48809 5.05896L8.49613 5.06134L8.50417 5.06371L8.51221 5.06609L8.52025 5.06846L8.52829 5.07084L8.53633 5.07321L8.54438 5.07559L8.55242 5.07797L8.56046 5.08034L8.5685 5.08272L8.57655 5.08509L8.58459 5.08747L8.59264 5.08985L8.60069 5.09223L8.60873 5.0946L8.61678 5.09698L8.62483 5.09936L8.63288 5.10174L8.64094 5.10412L8.64899 5.1065L8.65705 5.10888L8.6651 5.11126L8.67316 5.11364L8.68122 5.11602L8.68928 5.1184L8.69734 5.12078L8.70541 5.12316L8.71348 5.12555L8.72154 5.12793L8.72961 5.13031L8.73769 5.1327L8.74576 5.13508L8.75384 5.13747L8.76192 5.13986L8.77 5.14225L8.77808 5.14463L8.78617 5.14702L8.79426 5.14941L8.80235 5.1518L8.81045 5.15419L8.81854 5.15659L8.82664 5.15898L8.83475 5.16137L8.84285 5.16377L8.85096 5.16616L8.85907 5.16856L8.86719 5.17096L8.87531 5.17336L8.88343 5.17575L8.89155 5.17816L8.89968 5.18056L8.90781 5.18296L8.91595 5.18536L8.92409 5.18777L8.93223 5.19017L8.94038 5.19258L8.94853 5.19499L8.95668 5.1974L8.96484 5.19981L8.97301 5.20222L8.98117 5.20463L8.98934 5.20705L8.99752 5.20946L9.0057 5.21188L9.01388 5.2143L9.02207 5.21671L9.03027 5.21913L9.03846 5.22156L9.04667 5.22398L9.05487 5.2264L9.06309 5.22883L9.0713 5.23126L9.07952 5.23369L9.08775 5.23612L9.09598 5.23855L9.10422 5.24098L9.11246 5.24342L9.12071 5.24586L9.12896 5.24829L9.13722 5.25073L9.14549 5.25318L9.15376 5.25562L9.16203 5.25806L9.17031 5.26051L9.1786 5.26296L9.1869 5.26541L9.19519 5.26786L9.2035 5.27031L9.21181 5.27277L9.22013 5.27523L9.22845 5.27768L9.23678 5.28015L9.24512 5.28261L9.25346 5.28507L9.26181 5.28754L9.27016 5.29001L9.27853 5.29248L9.28689 5.29495L9.29527 5.29742L9.30365 5.2999L9.31204 5.30238L9.32044 5.30486L9.32884 5.30734L9.33725 5.30983L9.34567 5.31231L9.35409 5.3148L9.36253 5.31729L9.37097 5.31979L9.37941 5.32228L9.38787 5.32478L9.39633 5.32728L9.4048 5.32978L9.41328 5.33229L9.42176 5.33479L9.43026 5.3373L9.43876 5.33982L9.44727 5.34233L9.45578 5.34485L9.46431 5.34736L9.47284 5.34989L9.48139 5.35241L9.48994 5.35493L9.49849 5.35746L9.50706 5.35999L9.51564 5.36253L9.52422 5.36506L9.53282 5.3676L9.54142 5.37014L9.55003 5.37269L9.55865 5.37523L9.56728 5.37778L9.57591 5.38034L9.58456 5.38289L9.59322 5.38545L9.60188 5.38801L9.61056 5.39057L9.61924 5.39314L9.62793 5.3957L9.63664 5.39827L9.64535 5.40085L9.65407 5.40343L9.66281 5.40601L9.67155 5.40859L9.6803 5.41117L9.68906 5.41376L9.69783 5.41635L9.70661 5.41895L9.71541 5.42155L9.72421 5.42415L9.73302 5.42675L9.74184 5.42936L9.75068 5.43197L9.75952 5.43458L9.76837 5.43719L9.77724 5.43981L9.78611 5.44243L9.795 5.44506L9.8039 5.44769L9.81281 5.45032L9.82173 5.45296L9.83066 5.45559L9.8396 5.45824L9.84855 5.46088L9.85751 5.46353L9.86649 5.46618L9.87548 5.46883L9.88447 5.47149L9.89348 5.47415L9.9025 5.47682L9.91154 5.47949L9.92058 5.48216L9.92964 5.48484L9.93871 5.48751L9.94779 5.4902L9.95688 5.49288L9.96598 5.49557L9.9751 5.49827L9.98423 5.50096L9.99337 5.50366L10.0025 5.50637L10.0117 5.50908L10.0209 5.51179L10.0301 5.5145L10.0393 5.51722L10.0485 5.51994L10.0577 5.52267L10.0669 5.5254L10.0762 5.52813L10.0855 5.53087L10.0948 5.53361L10.104 5.53636L10.1134 5.53911L10.1227 5.54186L10.132 5.54462L10.1414 5.54738L10.1507 5.55015L10.1601 5.55292L10.1695 5.55569L10.1789 5.55847L10.1883 5.56125L10.1977 5.56403L10.2072 5.56682L10.2166 5.56962L10.2261 5.57242L10.2356 5.57522L10.2451 5.57802L10.2546 5.58084L10.2641 5.58365L10.2737 5.58647L10.2832 5.58929L10.2928 5.59212L10.3024 5.59495L10.312 5.59779L10.3216 5.60063L10.3312 5.60347L10.3409 5.60632L10.3505 5.60918L10.3602 5.61203L10.3699 5.6149L10.3796 5.61776L10.3893 5.62064L10.399 5.62351L10.4088 5.62639L10.4186 5.62928L10.4283 5.63217L10.4381 5.63506L10.4479 5.63796L10.4578 5.64086L10.4676 5.64377L10.4775 5.64668L10.4874 5.6496L10.4972 5.65252L10.5072 5.65545L10.5171 5.65838L10.527 5.66132L10.537 5.66426L10.5469 5.66721L10.5569 5.67016L10.5669 5.67311L10.577 5.67607L10.587 5.67904L10.5971 5.68201L10.6071 5.68499L10.6172 5.68797L10.6273 5.69095L10.6374 5.69394L10.6476 5.69694L10.6577 5.69994L10.6679 5.70294L10.6781 5.70595L10.6883 5.70897L10.6985 5.71199L10.7088 5.71502L10.719 5.71805L10.7293 5.72108L10.7396 5.72412C11.4295 5.92792 12.049 5.45101 12.2187 4.84742L12.5251 3.75774C12.6949 3.15415 12.418 2.41241 11.7282 2.20861L7.22511 0.878285C6.53527 0.674485 5.91573 1.1514 5.74601 1.75499L5.43959 2.84467C5.26986 3.44826 5.54672 4.19 6.23657 4.3938Z" stroke="#292D32" stroke-width="1.2" stroke-linecap="round" stroke-linejoin="round"/>
<path d="M6.23657 4.3938L6.24686 4.39684L6.25714 4.39987L6.2674 4.4029L6.27764 4.40593L6.28787 4.40895L6.29807 4.41197L6.30826 4.41498L6.31844 4.41798L6.32859 4.42098L6.33873 4.42398L6.34886 4.42697L6.35896 4.42995L6.36905 4.43294L6.37912 4.43591L6.38918 4.43888L6.39921 4.44185L6.40924 4.44481L6.41924 4.44776L6.42923 4.45071L6.4392 4.45366L6.44916 4.4566L6.4591 4.45954L6.46902 4.46247L6.47893 4.4654L6.48882 4.46832L6.4987 4.47124L6.50856 4.47415L6.5184 4.47706L6.52823 4.47996L6.53804 4.48286L6.54784 4.48575L6.55762 4.48864L6.56738 4.49153L6.57713 4.49441L6.58687 4.49729L6.59659 4.50016L6.60629 4.50302L6.61598 4.50589L6.62566 4.50874L6.63532 4.5116L6.64496 4.51445L6.65459 4.51729L6.6642 4.52013L6.67381 4.52297L6.68339 4.5258L6.69296 4.52863L6.70252 4.53145L6.71206 4.53427L6.72159 4.53709L6.7311 4.5399L6.7406 4.5427L6.75008 4.5455L6.75956 4.5483L6.76901 4.5511L6.77846 4.55389L6.78788 4.55667L6.7973 4.55945L6.8067 4.56223L6.81609 4.565L6.82546 4.56777L6.83482 4.57054L6.84417 4.5733L6.8535 4.57606L6.86282 4.57881L6.87213 4.58156L6.88143 4.58431L6.89071 4.58705L6.89997 4.58979L6.90923 4.59252L6.91847 4.59525L6.9277 4.59798L6.93692 4.6007L6.94612 4.60342L6.95531 4.60613L6.96449 4.60885L6.97365 4.61155L6.98281 4.61426L6.99195 4.61696L7.00108 4.61965L7.01019 4.62235L7.0193 4.62504L7.02839 4.62772L7.03747 4.63041L7.04654 4.63309L7.05559 4.63576L7.06464 4.63843L7.07367 4.6411L7.08269 4.64377L7.0917 4.64643L7.1007 4.64909L7.10969 4.65174L7.11866 4.65439L7.12763 4.65704L7.13658 4.65969L7.14552 4.66233L7.15445 4.66497L7.16337 4.6676L7.17228 4.67023L7.18117 4.67286L7.19006 4.67549L7.19894 4.67811L7.2078 4.68073L7.21666 4.68334L7.2255 4.68596L7.23433 4.68857L7.24316 4.69117L7.25197 4.69377L7.26077 4.69638L7.26956 4.69897L7.27834 4.70157L7.28712 4.70416L7.29588 4.70675L7.30463 4.70933L7.31337 4.71192L7.3221 4.71449L7.33083 4.71707L7.33954 4.71965L7.34824 4.72222L7.35693 4.72479L7.36562 4.72735L7.37429 4.72991L7.38296 4.73247L7.39161 4.73503L7.40026 4.73759L7.4089 4.74014L7.41753 4.74269L7.42615 4.74523L7.43476 4.74778L7.44336 4.75032L7.45195 4.75286L7.46054 4.75539L7.46911 4.75793L7.47768 4.76046L7.48624 4.76299L7.49479 4.76551L7.50333 4.76804L7.51187 4.77056L7.52039 4.77307L7.52891 4.77559L7.53742 4.77811L7.54592 4.78062L7.55441 4.78313L7.5629 4.78563L7.57138 4.78814L7.57985 4.79064L7.58831 4.79314L7.59676 4.79564L7.60521 4.79813L7.61365 4.80063L7.62208 4.80312L7.63051 4.80561L7.63892 4.80809L7.64734 4.81058L7.65574 4.81306L7.66413 4.81554L7.67252 4.81802L7.68091 4.8205L7.68928 4.82297L7.69765 4.82544L7.70601 4.82791L7.71437 4.83038L7.72272 4.83285L7.73106 4.83531L7.7394 4.83778L7.74773 4.84024L7.75605 4.84269L7.76437 4.84515L7.77268 4.84761L7.78098 4.85006L7.78928 4.85251L7.79757 4.85496L7.80586 4.85741L7.81414 4.85986L7.82242 4.8623L7.83069 4.86475L7.83895 4.86719L7.84721 4.86963L7.85546 4.87207L7.86371 4.8745L7.87196 4.87694L7.88019 4.87937L7.88842 4.8818L7.89665 4.88423L7.90487 4.88666L7.91309 4.88909L7.9213 4.89152L7.92951 4.89394L7.93771 4.89636L7.94591 4.89879L7.9541 4.90121L7.96229 4.90363L7.97048 4.90604L7.97866 4.90846L7.98683 4.91087L7.995 4.91329L8.00317 4.9157L8.01133 4.91811L8.01949 4.92052L8.02765 4.92293L8.0358 4.92534L8.04394 4.92775L8.05209 4.93015L8.06023 4.93256L8.06836 4.93496L8.07649 4.93736L8.08462 4.93977L8.09275 4.94217L8.10087 4.94457L8.10899 4.94696L8.1171 4.94936L8.12522 4.95176L8.13332 4.95415L8.14143 4.95655L8.14953 4.95894L8.15763 4.96133L8.16573 4.96373L8.17383 4.96612L8.18192 4.96851L8.19001 4.9709L8.19809 4.97329L8.20618 4.97568L8.21426 4.97806L8.22234 4.98045L8.23041 4.98284L8.23849 4.98522L8.24656 4.98761L8.25463 4.98999L8.2627 4.99237L8.27077 4.99476L8.27883 4.99714L8.2869 4.99952L8.29496 5.0019L8.30302 5.00428L8.31107 5.00667L8.31913 5.00905L8.32719 5.01143L8.33524 5.0138L8.34329 5.01618L8.35134 5.01856L8.35939 5.02094L8.36744 5.02332L8.37549 5.0257L8.38354 5.02807L8.39158 5.03045L8.39963 5.03283L8.40767 5.0352L8.41572 5.03758L8.42376 5.03996L8.4318 5.04233L8.43984 5.04471L8.44788 5.04708L8.45593 5.04946L8.46397 5.05183L8.47201 5.05421L8.48005 5.05658L8.48809 5.05896L8.49613 5.06134L8.50417 5.06371L8.51221 5.06609L8.52025 5.06846L8.52829 5.07084L8.53633 5.07321L8.54438 5.07559L8.55242 5.07797L8.56046 5.08034L8.5685 5.08272L8.57655 5.08509L8.58459 5.08747L8.59264 5.08985L8.60069 5.09223L8.60873 5.0946L8.61678 5.09698L8.62483 5.09936L8.63288 5.10174L8.64094 5.10412L8.64899 5.1065L8.65705 5.10888L8.6651 5.11126L8.67316 5.11364L8.68122 5.11602L8.68928 5.1184L8.69734 5.12078L8.70541 5.12316L8.71348 5.12555L8.72154 5.12793L8.72961 5.13031L8.73769 5.1327L8.74576 5.13508L8.75384 5.13747L8.76192 5.13986L8.77 5.14225L8.77808 5.14463L8.78617 5.14702L8.79426 5.14941L8.80235 5.1518L8.81045 5.15419L8.81854 5.15659L8.82664 5.15898L8.83475 5.16137L8.84285 5.16377L8.85096 5.16616L8.85907 5.16856L8.86719 5.17096L8.87531 5.17336L8.88343 5.17575L8.89155 5.17816L8.89968 5.18056L8.90781 5.18296L8.91595 5.18536L8.92409 5.18777L8.93223 5.19017L8.94038 5.19258L8.94853 5.19499L8.95668 5.1974L8.96484 5.19981L8.97301 5.20222L8.98117 5.20463L8.98934 5.20705L8.99752 5.20946L9.0057 5.21188L9.01388 5.2143L9.02207 5.21671L9.03027 5.21913L9.03846 5.22156L9.04667 5.22398L9.05487 5.2264L9.06309 5.22883L9.0713 5.23126L9.07952 5.23369L9.08775 5.23612L9.09598 5.23855L9.10422 5.24098L9.11246 5.24342L9.12071 5.24586L9.12896 5.24829L9.13722 5.25073L9.14549 5.25318L9.15376 5.25562L9.16203 5.25806L9.17031 5.26051L9.1786 5.26296L9.1869 5.26541L9.19519 5.26786L9.2035 5.27031L9.21181 5.27277L9.22013 5.27523L9.22845 5.27768L9.23678 5.28015L9.24512 5.28261L9.25346 5.28507L9.26181 5.28754L9.27016 5.29001L9.27853 5.29248L9.28689 5.29495L9.29527 5.29742L9.30365 5.2999L9.31204 5.30238L9.32044 5.30486L9.32884 5.30734L9.33725 5.30983L9.34567 5.31231L9.35409 5.3148L9.36253 5.31729L9.37097 5.31979L9.37941 5.32228L9.38787 5.32478L9.39633 5.32728L9.4048 5.32978L9.41328 5.33229L9.42176 5.33479L9.43026 5.3373L9.43876 5.33982L9.44727 5.34233L9.45578 5.34485L9.46431 5.34736L9.47284 5.34989L9.48139 5.35241L9.48994 5.35493L9.49849 5.35746L9.50706 5.35999L9.51564 5.36253L9.52422 5.36506L9.53282 5.3676L9.54142 5.37014L9.55003 5.37269L9.55865 5.37523L9.56728 5.37778L9.57591 5.38034L9.58456 5.38289L9.59322 5.38545L9.60188 5.38801L9.61056 5.39057L9.61924 5.39314L9.62793 5.3957L9.63664 5.39827L9.64535 5.40085L9.65407 5.40343L9.66281 5.40601L9.67155 5.40859L9.6803 5.41117L9.68906 5.41376L9.69783 5.41635L9.70661 5.41895L9.71541 5.42155L9.72421 5.42415L9.73302 5.42675L9.74184 5.42936L9.75068 5.43197L9.75952 5.43458L9.76837 5.43719L9.77724 5.43981L9.78611 5.44243L9.795 5.44506L9.8039 5.44769L9.81281 5.45032L9.82173 5.45296L9.83066 5.45559L9.8396 5.45824L9.84855 5.46088L9.85751 5.46353L9.86649 5.46618L9.87548 5.46883L9.88447 5.47149L9.89348 5.47415L9.9025 5.47682L9.91154 5.47949L9.92058 5.48216L9.92964 5.48484L9.93871 5.48751L9.94779 5.4902L9.95688 5.49288L9.96598 5.49557L9.9751 5.49827L9.98423 5.50096L9.99337 5.50366L10.0025 5.50637L10.0117 5.50908L10.0209 5.51179L10.0301 5.5145L10.0393 5.51722L10.0485 5.51994L10.0577 5.52267L10.0669 5.5254L10.0762 5.52813L10.0855 5.53087L10.0948 5.53361L10.104 5.53636L10.1134 5.53911L10.1227 5.54186L10.132 5.54462L10.1414 5.54738L10.1507 5.55015L10.1601 5.55292L10.1695 5.55569L10.1789 5.55847L10.1883 5.56125L10.1977 5.56403L10.2072 5.56682L10.2166 5.56962L10.2261 5.57242L10.2356 5.57522L10.2451 5.57802L10.2546 5.58084L10.2641 5.58365L10.2737 5.58647L10.2832 5.58929L10.2928 5.59212L10.3024 5.59495L10.312 5.59779L10.3216 5.60063L10.3312 5.60347L10.3409 5.60632L10.3505 5.60918L10.3602 5.61203L10.3699 5.6149L10.3796 5.61776L10.3893 5.62064L10.399 5.62351L10.4088 5.62639L10.4186 5.62928L10.4283 5.63217L10.4381 5.63506L10.4479 5.63796L10.4578 5.64086L10.4676 5.64377L10.4775 5.64668L10.4874 5.6496L10.4972 5.65252L10.5072 5.65545L10.5171 5.65838L10.527 5.66132L10.537 5.66426L10.5469 5.66721L10.5569 5.67016L10.5669 5.67311L10.577 5.67607L10.587 5.67904L10.5971 5.68201L10.6071 5.68499L10.6172 5.68797L10.6273 5.69095L10.6374 5.69394L10.6476 5.69694L10.6577 5.69994L10.6679 5.70294L10.6781 5.70595L10.6883 5.70897L10.6985 5.71199L10.7088 5.71502L10.719 5.71805L10.7293 5.72108L10.7396 5.72412C11.4295 5.92792 12.049 5.45101 12.2187 4.84742L12.5251 3.75774C12.6949 3.15415 12.418 2.41241 11.7282 2.20861L7.22511 0.878285C6.53527 0.674485 5.91573 1.1514 5.74601 1.75499L5.43959 2.84467C5.26986 3.44826 5.54672 4.19 6.23657 4.3938Z" fill="#E1E1FF" stroke="#6161FF" stroke-width="1.2" stroke-linecap="round" stroke-linejoin="round"/>
<path d="M2.99781 12.424C3.0695 12.5003 3.16144 12.5589 3.26758 12.5901C3.31064 12.6028 3.43423 12.6425 3.62154 12.7026C3.79087 12.7569 4.01226 12.8279 4.27329 12.9109C4.81214 13.0821 5.50011 13.2974 6.18116 13.4988C6.85927 13.6993 7.54213 13.8895 8.06681 14.0078C8.32521 14.066 8.56783 14.1121 8.75967 14.1295C8.85016 14.1377 8.96768 14.1436 9.08246 14.1262C9.13884 14.1176 9.23261 14.0982 9.33065 14.0442C9.43546 13.9865 9.57975 13.8676 9.63872 13.6585L9.94528 12.5714C10.1385 11.8864 9.72026 11.1933 9.05998 10.9988L4.40559 9.6277C3.74531 9.4332 3.0303 9.79252 2.83712 10.4775C2.79952 10.6109 2.75277 10.7328 2.70029 10.8697C2.69548 10.8823 2.69061 10.895 2.6857 10.9078L2.68378 10.9128C2.63336 11.0446 2.56199 11.2311 2.53378 11.4167C2.50195 11.626 2.51273 11.9118 2.71291 12.172C2.79435 12.2778 2.89267 12.3597 2.99781 12.424Z" stroke="#292D32" stroke-width="1.2" stroke-linecap="round" stroke-linejoin="round"/>
<path d="M2.99781 12.424C3.0695 12.5003 3.16144 12.5589 3.26758 12.5901C3.31064 12.6028 3.43423 12.6425 3.62154 12.7026C3.79087 12.7569 4.01226 12.8279 4.27329 12.9109C4.81214 13.0821 5.50011 13.2974 6.18116 13.4988C6.85927 13.6993 7.54213 13.8895 8.06681 14.0078C8.32521 14.066 8.56783 14.1121 8.75967 14.1295C8.85016 14.1377 8.96768 14.1436 9.08246 14.1262C9.13884 14.1176 9.23261 14.0982 9.33065 14.0442C9.43546 13.9865 9.57975 13.8676 9.63872 13.6585L9.94528 12.5714C10.1385 11.8864 9.72026 11.1933 9.05998 10.9988L4.40559 9.6277C3.74531 9.4332 3.0303 9.79252 2.83712 10.4775C2.79952 10.6109 2.75277 10.7328 2.70029 10.8697C2.69548 10.8823 2.69061 10.895 2.6857 10.9078L2.68378 10.9128C2.63336 11.0446 2.56199 11.2311 2.53378 11.4167C2.50195 11.626 2.51273 11.9118 2.71291 12.172C2.79435 12.2778 2.89267 12.3597 2.99781 12.424Z" fill="#E1E1FF" stroke="#6161FF" stroke-width="1.2" stroke-linecap="round" stroke-linejoin="round"/>
<path d="M13.9954 7.44609C13.6296 7.37089 13.331 7.30952 13.1276 7.2616L12.2734 7.68553C12.2734 7.68579 12.2733 7.68606 12.2732 7.68632C12.2122 7.92096 12.1172 8.20058 12.0084 8.52052C12.0017 8.54022 11.995 8.56007 11.9882 8.58007C11.8752 8.91289 11.7511 9.28243 11.6646 9.62919C11.5815 9.96193 11.513 10.3473 11.5615 10.6918C11.587 10.8723 11.649 11.0759 11.789 11.2557C11.9358 11.444 12.1369 11.5657 12.3657 11.6219C12.6942 11.7027 13.2645 11.916 14.0152 12.1968C14.1438 12.2449 14.2777 12.2949 14.4165 12.3467C15.3381 12.69 16.4327 13.087 17.5015 13.385C18.557 13.6792 19.6489 13.8951 20.5491 13.8364C21.003 13.8069 21.4555 13.705 21.8367 13.4671C22.2354 13.2182 22.5184 12.843 22.6445 12.352C22.912 11.3107 22.2897 10.5035 21.5305 9.94705C20.762 9.38371 19.6844 8.93778 18.5885 8.5822C16.9732 8.05815 15.1496 7.68333 13.9954 7.44609Z" fill="#E1E1FF" stroke="#6161FF" stroke-width="1.2" stroke-linecap="round" stroke-linejoin="round"/>
<path d="M14.4487 12.1792C14.2843 12.1329 14.1875 11.9708 14.2329 11.8178L15.0557 8.48398C15.1011 8.33096 15.4674 8.07542 15.6318 8.12165C15.7966 8.168 15.6787 8.14431 15.6333 8.29733L14.8291 11.9855C14.7837 12.1385 14.6135 12.2255 14.4487 12.1792Z" fill="#292D32" stroke="#6161FF" stroke-width="0.92763" stroke-linecap="round" stroke-linejoin="round"/>
<path d="M10.002 7.5C10.0842 7.35036 10.0146 7.27925 10.1534 7.3581L11.6327 7.75185C11.7714 7.8307 12.0842 7.84987 12.0019 7.99951C12.0019 7.99951 11.6389 10.0784 11.5001 9.99959L9.50195 9.5C9.36318 9.42115 9.9195 7.65 10.002 7.5Z" stroke="#6161FF" stroke-width="0.92763" stroke-linecap="round" stroke-linejoin="round"/>
<path d="M10.0021 7.50011C10.0843 7.35047 10.0147 7.27936 10.1535 7.35821L12.5029 7.99989C12.5852 7.85025 12.6417 8.07874 12.5029 7.99989C12.5029 7.99989 11.639 10.0786 11.5002 9.9997L9.50205 9.50011C9.36328 9.42126 9.9196 7.65011 10.0021 7.50011Z" fill="#6161FF" fill-opacity="0.21"/>
<path d="M2.03749 23.3004H11.2983C11.7893 23.3004 12.1877 22.902 12.1877 22.411V21.2536C12.1877 20.3373 11.4434 19.5924 10.5265 19.5924H2.80923C1.89285 19.5924 1.14805 20.3372 1.14805 21.2536V22.411C1.14805 22.902 1.54651 23.3004 2.03749 23.3004Z" fill="#E1E1FF" stroke="#6161FF" stroke-width="1.2" stroke-linecap="round" stroke-linejoin="round"/>
<path d="M2.97227 18.632C2.97227 18.9633 3.24089 19.232 3.57227 19.232H3.60718H3.64181H3.67618H3.71028H3.7441H3.77766H3.81095H3.84397H3.87673H3.90923H3.94146H3.97343H4.00513H4.03658H4.06777H4.0987H4.12938H4.1598H4.18996H4.21988H4.24953H4.27894H4.3081H4.33701H4.36567H4.39408H4.42225H4.45017H4.47785H4.50528H4.53248H4.55943H4.58614H4.61262H4.63886H4.66486H4.69062H4.71615H4.74145H4.76652H4.79135H4.81596H4.84034H4.86448H4.88841H4.9121H4.93557H4.95882H4.98185H5.00465H5.02724H5.0496H5.07175H5.09368H5.11539H5.13689H5.15817H5.17924H5.2001H5.22075H5.24119H5.26142H5.28145H5.30126H5.32087H5.34028H5.35949H5.37849H5.39729H5.41589H5.43429H5.45249H5.4705H5.48831H5.50593H5.52335H5.54058H5.55762H5.57447H5.59113H5.6076H5.62389H5.63999H5.6559H5.67163H5.68717H5.70254H5.71772H5.73273H5.74755H5.7622H5.77667H5.79097H5.80509H5.81904H5.83281H5.84642H5.85985H5.87312H5.88622H5.89915H5.91191H5.92451H5.93695H5.94922H5.96134H5.97329H5.98508H5.99672H6.0082H6.01952H6.03068H6.0417H6.05255H6.06326H6.07382H6.08423H6.09448H6.10459H6.11456H6.12438H6.13405H6.14358H6.15297H6.16222H6.17133H6.1803H6.18913H6.19782H6.20638H6.2148H6.22309H6.23125H6.23927H6.24717H6.25493H6.26257H6.27008H6.27746H6.28472H6.29185H6.29886H6.30575H6.31252H6.31917H6.3257H6.33211H6.33841H6.34459H6.35065H6.35661H6.36245H6.36817H6.37379H6.3793H6.3847H6.39H6.39519H6.40027H6.40525H6.41013H6.4149H6.41958H6.42415H6.42863H6.43301H6.4373H6.44148H6.44558H6.44958H6.45349H6.45731H6.46104H6.46468H6.46823H6.47169H6.47507H6.47837H6.48158H6.48471H6.48776H6.49073H6.49362H6.49643H6.49916H6.50182H6.5044H6.50691H6.50935H6.51171H6.51401H6.51623H6.51839H6.52048H6.5225H6.52446H6.52635H6.52818H6.52995H6.53166H6.5333H6.53489H6.53642H6.5379H6.53932H6.54068H6.54199H6.54325H6.54446H6.54561H6.54672H6.54778H6.54879H6.54976H6.55068H6.55155H6.55239H6.55318H6.55393H6.55465H6.55532H6.55596H6.55656H6.55712H6.55765H6.55815H6.55862H6.55905H6.55945H6.55983H6.56018H6.5605H6.56079H6.56106H6.56131H6.56154H6.56174H6.56192H6.56209H6.56223H6.56236H6.56247H6.56257H6.56265H6.56273H6.56278H6.56283H6.56287H6.5629H6.56292H6.56294H6.56295H6.56296H6.56296H6.56297H6.56297H6.56298H6.563H6.56302H6.56305H6.56309H6.56314H6.5632H6.56327H6.56335H6.56345H6.56356H6.56369H6.56384H6.564H6.56419H6.56439H6.56461H6.56486H6.56513H6.56543H6.56575H6.5661H6.56647H6.56688H6.56731H6.56778H6.56827H6.5688H6.56937H6.56997H6.57061H6.57128H6.57199H6.57274H6.57354H6.57437H6.57525H6.57617H6.57714H6.57815H6.57921H6.58031H6.58147H6.58268H6.58393H6.58525H6.58661H6.58803H6.5895H6.59103H6.59262H6.59427H6.59598H6.59774H6.59957H6.60147H6.60342H6.60545H6.60754H6.60969H6.61192H6.61421H6.61658H6.61901H6.62152H6.62411H6.62676H6.6295H6.63231H6.6352H6.63817H6.64121H6.64434H6.64756H6.65085H6.65423H6.6577H6.66125H6.66489H6.66862H6.67244H6.67635H6.68035H6.68444H6.68863H6.69291H6.69729H6.70177H6.70635H6.71102H6.7158H6.72068H6.72566H6.73074H6.73593H6.74122H6.74662H6.75213H6.75775H6.76348H6.76932H6.77527H6.78134H6.78752H6.79381H6.80023H6.80676H6.8134H6.82017H6.82706H6.83407H6.84121H6.84847H6.85585H6.86336H6.871H6.87876H6.88665H6.89468H6.90284H6.91113H6.91955H6.92811H6.9368H6.94563H6.9546H6.96371H6.97295H6.98234H6.99187H7.00155H7.01137H7.02133H7.03144H7.0417H7.05211H7.06266H7.07337H7.08423H7.09524H7.10641H7.11773H7.12921H7.14084H7.15264H7.16459H7.1767H7.18898H7.20141H7.21401H7.22678H7.23971H7.25281H7.26607H7.27951H7.29311H7.30689H7.32084H7.33496H7.34926H7.36373H7.37837H7.3932H7.4082H7.42339H7.43875H7.4543H7.47003H7.48594H7.50204H7.51832H7.53479H7.55145H7.5683H7.58534H7.60257H7.62H7.63761H7.65542H7.67343H7.69163H7.71004H7.72864H7.74744H7.76644H7.78564H7.80505H7.82466H7.84448H7.8645H7.88473H7.90517H7.92582H7.94668H7.96775H7.98904H8.01054H8.03225H8.05418H8.07633H8.09869H8.12127H8.14408H8.1671H8.19035H8.21382H8.23752H8.26144H8.28559H8.30997H8.33457H8.35941H8.38447H8.40977H8.4353H8.46107H8.48707H8.51331H8.53978H8.5665H8.59345H8.62064H8.64808H8.67576H8.70368H8.73185H8.76026H8.78892H8.81783H8.84698H8.87639H8.90605H8.93596H8.96613H8.99655H9.02722H9.05815H9.08934H9.12079H9.1525H9.18447H9.2167H9.24919H9.28195H9.31498H9.34827H9.38182H9.41565H9.44975H9.48411H9.51875H9.55366C9.88503 19.232 10.1537 18.9633 10.1537 18.632C10.1537 17.7156 9.40886 16.9708 8.49248 16.9708H4.63344C3.71655 16.9708 2.97227 17.7157 2.97227 18.632Z" fill="#E1E1FF" stroke="#6161FF" stroke-width="1.2" stroke-linecap="round" stroke-linejoin="round"/>
</svg>
