<svg width="24" height="24" viewBox="0 0 24 24" fill="none" xmlns="http://www.w3.org/2000/svg">
<path d="M5.42058 9.34564C5.38038 9.50645 5.40814 9.67774 5.49728 9.8189C5.58643 9.96006 5.72902 10.0585 5.89126 10.091L8.39139 10.5907C8.70141 10.6527 9.00266 10.4617 9.07953 10.1544L9.57986 8.15454L10.0802 6.15464C10.1526 5.86533 10.0026 5.56353 9.72804 5.44604C8.7864 5.04303 8.16179 4.89312 7.70907 4.85835C7.47849 4.84063 7.30283 4.85359 7.16533 4.87151C7.12253 4.87709 7.07418 4.8846 7.04253 4.88951C7.03146 4.89123 7.02244 4.89263 7.01641 4.89352C6.99819 4.89622 6.98914 4.8972 6.9862 4.89752C6.7179 4.90028 6.48634 5.08334 6.42081 5.34541L5.42058 9.34564Z" stroke="#292D32" stroke-width="1.2" stroke-linecap="round" stroke-linejoin="round"/>
<path d="M6.23657 4.39404L6.24686 4.39708L6.25714 4.40012L6.2674 4.40315L6.27764 4.40618L6.28787 4.4092L6.29807 4.41221L6.30826 4.41522L6.31844 4.41823L6.32859 4.42123L6.33873 4.42422L6.34886 4.42721L6.35896 4.4302L6.36905 4.43318L6.37912 4.43615L6.38918 4.43913L6.39921 4.44209L6.40924 4.44505L6.41924 4.44801L6.42923 4.45096L6.4392 4.4539L6.44916 4.45685L6.4591 4.45978L6.46902 4.46271L6.47893 4.46564L6.48882 4.46856L6.4987 4.47148L6.50856 4.47439L6.5184 4.4773L6.52823 4.48021L6.53804 4.4831L6.54784 4.486L6.55762 4.48889L6.56738 4.49177L6.57713 4.49465L6.58687 4.49753L6.59659 4.5004L6.60629 4.50327L6.61598 4.50613L6.62566 4.50899L6.63532 4.51184L6.64496 4.51469L6.65459 4.51754L6.6642 4.52038L6.67381 4.52321L6.68339 4.52604L6.69296 4.52887L6.70252 4.5317L6.71206 4.53451L6.72159 4.53733L6.7311 4.54014L6.7406 4.54295L6.75008 4.54575L6.75956 4.54855L6.76901 4.55134L6.77846 4.55413L6.78788 4.55692L6.7973 4.5597L6.8067 4.56247L6.81609 4.56525L6.82546 4.56802L6.83482 4.57078L6.84417 4.57354L6.8535 4.5763L6.86282 4.57905L6.87213 4.5818L6.88143 4.58455L6.89071 4.58729L6.89997 4.59003L6.90923 4.59276L6.91847 4.59549L6.9277 4.59822L6.93692 4.60094L6.94612 4.60366L6.95531 4.60638L6.96449 4.60909L6.97365 4.6118L6.98281 4.6145L6.99195 4.6172L7.00108 4.6199L7.01019 4.62259L7.0193 4.62528L7.02839 4.62797L7.03747 4.63065L7.04654 4.63333L7.05559 4.636L7.06464 4.63868L7.07367 4.64135L7.08269 4.64401L7.0917 4.64667L7.1007 4.64933L7.10969 4.65199L7.11866 4.65464L7.12763 4.65728L7.13658 4.65993L7.14552 4.66257L7.15445 4.66521L7.16337 4.66784L7.17228 4.67048L7.18117 4.6731L7.19006 4.67573L7.19894 4.67835L7.2078 4.68097L7.21666 4.68359L7.2255 4.6862L7.23433 4.68881L7.24316 4.69142L7.25197 4.69402L7.26077 4.69662L7.26956 4.69922L7.27834 4.70181L7.28712 4.7044L7.29588 4.70699L7.30463 4.70958L7.31337 4.71216L7.3221 4.71474L7.33083 4.71732L7.33954 4.71989L7.34824 4.72246L7.35693 4.72503L7.36562 4.72759L7.37429 4.73016L7.38296 4.73272L7.39161 4.73527L7.40026 4.73783L7.4089 4.74038L7.41753 4.74293L7.42615 4.74548L7.43476 4.74802L7.44336 4.75056L7.45195 4.7531L7.46054 4.75564L7.46911 4.75817L7.47768 4.7607L7.48624 4.76323L7.49479 4.76576L7.50333 4.76828L7.51187 4.7708L7.52039 4.77332L7.52891 4.77584L7.53742 4.77835L7.54592 4.78086L7.55441 4.78337L7.5629 4.78588L7.57138 4.78838L7.57985 4.79088L7.58831 4.79338L7.59676 4.79588L7.60521 4.79838L7.61365 4.80087L7.62208 4.80336L7.63051 4.80585L7.63892 4.80834L7.64734 4.81082L7.65574 4.8133L7.66413 4.81578L7.67252 4.81826L7.68091 4.82074L7.68928 4.82321L7.69765 4.82569L7.70601 4.82816L7.71437 4.83063L7.72272 4.83309L7.73106 4.83556L7.7394 4.83802L7.74773 4.84048L7.75605 4.84294L7.76437 4.8454L7.77268 4.84785L7.78098 4.85031L7.78928 4.85276L7.79757 4.85521L7.80586 4.85766L7.81414 4.8601L7.82242 4.86255L7.83069 4.86499L7.83895 4.86743L7.84721 4.86987L7.85546 4.87231L7.86371 4.87475L7.87196 4.87718L7.88019 4.87961L7.88842 4.88205L7.89665 4.88448L7.90487 4.88691L7.91309 4.88933L7.9213 4.89176L7.92951 4.89418L7.93771 4.89661L7.94591 4.89903L7.9541 4.90145L7.96229 4.90387L7.97048 4.90629L7.97866 4.9087L7.98683 4.91112L7.995 4.91353L8.00317 4.91595L8.01133 4.91836L8.01949 4.92077L8.02765 4.92318L8.0358 4.92558L8.04394 4.92799L8.05209 4.9304L8.06023 4.9328L8.06836 4.93521L8.07649 4.93761L8.08462 4.94001L8.09275 4.94241L8.10087 4.94481L8.10899 4.94721L8.1171 4.94961L8.12522 4.952L8.13332 4.9544L8.14143 4.95679L8.14953 4.95919L8.15763 4.96158L8.16573 4.96397L8.17383 4.96636L8.18192 4.96875L8.19001 4.97114L8.19809 4.97353L8.20618 4.97592L8.21426 4.97831L8.22234 4.98069L8.23041 4.98308L8.23849 4.98547L8.24656 4.98785L8.25463 4.99023L8.2627 4.99262L8.27077 4.995L8.27883 4.99738L8.2869 4.99977L8.29496 5.00215L8.30302 5.00453L8.31107 5.00691L8.31913 5.00929L8.32719 5.01167L8.33524 5.01405L8.34329 5.01643L8.35134 5.01881L8.35939 5.02118L8.36744 5.02356L8.37549 5.02594L8.38354 5.02832L8.39158 5.03069L8.39963 5.03307L8.40767 5.03545L8.41572 5.03782L8.42376 5.0402L8.4318 5.04258L8.43984 5.04495L8.44788 5.04733L8.45593 5.0497L8.46397 5.05208L8.47201 5.05445L8.48005 5.05683L8.48809 5.0592L8.49613 5.06158L8.50417 5.06396L8.51221 5.06633L8.52025 5.06871L8.52829 5.07108L8.53633 5.07346L8.54438 5.07583L8.55242 5.07821L8.56046 5.08059L8.5685 5.08296L8.57655 5.08534L8.58459 5.08772L8.59264 5.09009L8.60069 5.09247L8.60873 5.09485L8.61678 5.09722L8.62483 5.0996L8.63288 5.10198L8.64094 5.10436L8.64899 5.10674L8.65705 5.10912L8.6651 5.1115L8.67316 5.11388L8.68122 5.11626L8.68928 5.11864L8.69734 5.12102L8.70541 5.12341L8.71348 5.12579L8.72154 5.12817L8.72961 5.13056L8.73769 5.13294L8.74576 5.13533L8.75384 5.13771L8.76192 5.1401L8.77 5.14249L8.77808 5.14488L8.78617 5.14727L8.79426 5.14966L8.80235 5.15205L8.81045 5.15444L8.81854 5.15683L8.82664 5.15922L8.83475 5.16162L8.84285 5.16401L8.85096 5.16641L8.85907 5.1688L8.86719 5.1712L8.87531 5.1736L8.88343 5.176L8.89155 5.1784L8.89968 5.1808L8.90781 5.1832L8.91595 5.18561L8.92409 5.18801L8.93223 5.19042L8.94038 5.19282L8.94853 5.19523L8.95668 5.19764L8.96484 5.20005L8.97301 5.20246L8.98117 5.20488L8.98934 5.20729L8.99752 5.20971L9.0057 5.21212L9.01388 5.21454L9.02207 5.21696L9.03027 5.21938L9.03846 5.2218L9.04667 5.22422L9.05487 5.22665L9.06309 5.22908L9.0713 5.2315L9.07952 5.23393L9.08775 5.23636L9.09598 5.23879L9.10422 5.24123L9.11246 5.24366L9.12071 5.2461L9.12896 5.24854L9.13722 5.25098L9.14549 5.25342L9.15376 5.25586L9.16203 5.25831L9.17031 5.26075L9.1786 5.2632L9.1869 5.26565L9.19519 5.2681L9.2035 5.27056L9.21181 5.27301L9.22013 5.27547L9.22845 5.27793L9.23678 5.28039L9.24512 5.28285L9.25346 5.28532L9.26181 5.28778L9.27016 5.29025L9.27853 5.29272L9.28689 5.29519L9.29527 5.29767L9.30365 5.30015L9.31204 5.30262L9.32044 5.3051L9.32884 5.30759L9.33725 5.31007L9.34567 5.31256L9.35409 5.31505L9.36253 5.31754L9.37097 5.32003L9.37941 5.32253L9.38787 5.32503L9.39633 5.32753L9.4048 5.33003L9.41328 5.33253L9.42176 5.33504L9.43026 5.33755L9.43876 5.34006L9.44727 5.34257L9.45578 5.34509L9.46431 5.34761L9.47284 5.35013L9.48139 5.35265L9.48994 5.35518L9.49849 5.35771L9.50706 5.36024L9.51564 5.36277L9.52422 5.36531L9.53282 5.36785L9.54142 5.37039L9.55003 5.37293L9.55865 5.37548L9.56728 5.37803L9.57591 5.38058L9.58456 5.38313L9.59322 5.38569L9.60188 5.38825L9.61056 5.39081L9.61924 5.39338L9.62793 5.39595L9.63664 5.39852L9.64535 5.40109L9.65407 5.40367L9.66281 5.40625L9.67155 5.40883L9.6803 5.41142L9.68906 5.41401L9.69783 5.4166L9.70661 5.41919L9.71541 5.42179L9.72421 5.42439L9.73302 5.42699L9.74184 5.4296L9.75068 5.43221L9.75952 5.43482L9.76837 5.43744L9.77724 5.44006L9.78611 5.44268L9.795 5.4453L9.8039 5.44793L9.81281 5.45056L9.82173 5.4532L9.83066 5.45584L9.8396 5.45848L9.84855 5.46112L9.85751 5.46377L9.86649 5.46642L9.87548 5.46908L9.88447 5.47174L9.89348 5.4744L9.9025 5.47706L9.91154 5.47973L9.92058 5.4824L9.92964 5.48508L9.93871 5.48776L9.94779 5.49044L9.95688 5.49313L9.96598 5.49582L9.9751 5.49851L9.98423 5.50121L9.99337 5.50391L10.0025 5.50661L10.0117 5.50932L10.0209 5.51203L10.0301 5.51475L10.0393 5.51747L10.0485 5.52019L10.0577 5.52291L10.0669 5.52564L10.0762 5.52838L10.0855 5.53112L10.0948 5.53386L10.104 5.5366L10.1134 5.53935L10.1227 5.54211L10.132 5.54486L10.1414 5.54763L10.1507 5.55039L10.1601 5.55316L10.1695 5.55593L10.1789 5.55871L10.1883 5.56149L10.1977 5.56428L10.2072 5.56707L10.2166 5.56986L10.2261 5.57266L10.2356 5.57546L10.2451 5.57827L10.2546 5.58108L10.2641 5.58389L10.2737 5.58671L10.2832 5.58954L10.2928 5.59236L10.3024 5.5952L10.312 5.59803L10.3216 5.60087L10.3312 5.60372L10.3409 5.60657L10.3505 5.60942L10.3602 5.61228L10.3699 5.61514L10.3796 5.61801L10.3893 5.62088L10.399 5.62376L10.4088 5.62664L10.4186 5.62952L10.4283 5.63241L10.4381 5.6353L10.4479 5.6382L10.4578 5.64111L10.4676 5.64402L10.4775 5.64693L10.4874 5.64985L10.4972 5.65277L10.5072 5.65569L10.5171 5.65863L10.527 5.66156L10.537 5.6645L10.5469 5.66745L10.5569 5.6704L10.5669 5.67336L10.577 5.67632L10.587 5.67928L10.5971 5.68225L10.6071 5.68523L10.6172 5.68821L10.6273 5.6912L10.6374 5.69419L10.6476 5.69718L10.6577 5.70018L10.6679 5.70319L10.6781 5.7062L10.6883 5.70921L10.6985 5.71223L10.7088 5.71526L10.719 5.71829L10.7293 5.72133L10.7396 5.72437C11.4295 5.92817 12.049 5.45125 12.2187 4.84766L12.5251 3.75798C12.6949 3.15439 12.418 2.41266 11.7282 2.20886L7.22511 0.878529C6.53527 0.674729 5.91573 1.15165 5.74601 1.75524L5.43959 2.84491C5.26986 3.4485 5.54672 4.19024 6.23657 4.39404Z" stroke="#292D32" stroke-width="1.2" stroke-linecap="round" stroke-linejoin="round"/>
<path d="M6.23657 4.39392L6.24686 4.39696L6.25714 4.4L6.2674 4.40303L6.27764 4.40605L6.28787 4.40907L6.29807 4.41209L6.30826 4.4151L6.31844 4.41811L6.32859 4.42111L6.33873 4.4241L6.34886 4.42709L6.35896 4.43008L6.36905 4.43306L6.37912 4.43603L6.38918 4.439L6.39921 4.44197L6.40924 4.44493L6.41924 4.44789L6.42923 4.45084L6.4392 4.45378L6.44916 4.45672L6.4591 4.45966L6.46902 4.46259L6.47893 4.46552L6.48882 4.46844L6.4987 4.47136L6.50856 4.47427L6.5184 4.47718L6.52823 4.48008L6.53804 4.48298L6.54784 4.48588L6.55762 4.48877L6.56738 4.49165L6.57713 4.49453L6.58687 4.49741L6.59659 4.50028L6.60629 4.50315L6.61598 4.50601L6.62566 4.50887L6.63532 4.51172L6.64496 4.51457L6.65459 4.51741L6.6642 4.52025L6.67381 4.52309L6.68339 4.52592L6.69296 4.52875L6.70252 4.53157L6.71206 4.53439L6.72159 4.53721L6.7311 4.54002L6.7406 4.54282L6.75008 4.54563L6.75956 4.54842L6.76901 4.55122L6.77846 4.55401L6.78788 4.55679L6.7973 4.55957L6.8067 4.56235L6.81609 4.56513L6.82546 4.56789L6.83482 4.57066L6.84417 4.57342L6.8535 4.57618L6.86282 4.57893L6.87213 4.58168L6.88143 4.58443L6.89071 4.58717L6.89997 4.58991L6.90923 4.59264L6.91847 4.59537L6.9277 4.5981L6.93692 4.60082L6.94612 4.60354L6.95531 4.60626L6.96449 4.60897L6.97365 4.61167L6.98281 4.61438L6.99195 4.61708L7.00108 4.61978L7.01019 4.62247L7.0193 4.62516L7.02839 4.62785L7.03747 4.63053L7.04654 4.63321L7.05559 4.63588L7.06464 4.63855L7.07367 4.64122L7.08269 4.64389L7.0917 4.64655L7.1007 4.64921L7.10969 4.65186L7.11866 4.65451L7.12763 4.65716L7.13658 4.65981L7.14552 4.66245L7.15445 4.66509L7.16337 4.66772L7.17228 4.67035L7.18117 4.67298L7.19006 4.67561L7.19894 4.67823L7.2078 4.68085L7.21666 4.68346L7.2255 4.68608L7.23433 4.68869L7.24316 4.69129L7.25197 4.6939L7.26077 4.6965L7.26956 4.69909L7.27834 4.70169L7.28712 4.70428L7.29588 4.70687L7.30463 4.70945L7.31337 4.71204L7.3221 4.71462L7.33083 4.71719L7.33954 4.71977L7.34824 4.72234L7.35693 4.72491L7.36562 4.72747L7.37429 4.73004L7.38296 4.7326L7.39161 4.73515L7.40026 4.73771L7.4089 4.74026L7.41753 4.74281L7.42615 4.74535L7.43476 4.7479L7.44336 4.75044L7.45195 4.75298L7.46054 4.75551L7.46911 4.75805L7.47768 4.76058L7.48624 4.76311L7.49479 4.76563L7.50333 4.76816L7.51187 4.77068L7.52039 4.7732L7.52891 4.77571L7.53742 4.77823L7.54592 4.78074L7.55441 4.78325L7.5629 4.78575L7.57138 4.78826L7.57985 4.79076L7.58831 4.79326L7.59676 4.79576L7.60521 4.79825L7.61365 4.80075L7.62208 4.80324L7.63051 4.80573L7.63892 4.80822L7.64734 4.8107L7.65574 4.81318L7.66413 4.81566L7.67252 4.81814L7.68091 4.82062L7.68928 4.82309L7.69765 4.82556L7.70601 4.82803L7.71437 4.8305L7.72272 4.83297L7.73106 4.83543L7.7394 4.8379L7.74773 4.84036L7.75605 4.84282L7.76437 4.84527L7.77268 4.84773L7.78098 4.85018L7.78928 4.85263L7.79757 4.85508L7.80586 4.85753L7.81414 4.85998L7.82242 4.86242L7.83069 4.86487L7.83895 4.86731L7.84721 4.86975L7.85546 4.87219L7.86371 4.87462L7.87196 4.87706L7.88019 4.87949L7.88842 4.88192L7.89665 4.88436L7.90487 4.88678L7.91309 4.88921L7.9213 4.89164L7.92951 4.89406L7.93771 4.89649L7.94591 4.89891L7.9541 4.90133L7.96229 4.90375L7.97048 4.90617L7.97866 4.90858L7.98683 4.911L7.995 4.91341L8.00317 4.91582L8.01133 4.91824L8.01949 4.92065L8.02765 4.92305L8.0358 4.92546L8.04394 4.92787L8.05209 4.93028L8.06023 4.93268L8.06836 4.93508L8.07649 4.93749L8.08462 4.93989L8.09275 4.94229L8.10087 4.94469L8.10899 4.94709L8.1171 4.94948L8.12522 4.95188L8.13332 4.95428L8.14143 4.95667L8.14953 4.95906L8.15763 4.96146L8.16573 4.96385L8.17383 4.96624L8.18192 4.96863L8.19001 4.97102L8.19809 4.97341L8.20618 4.9758L8.21426 4.97819L8.22234 4.98057L8.23041 4.98296L8.23849 4.98534L8.24656 4.98773L8.25463 4.99011L8.2627 4.9925L8.27077 4.99488L8.27883 4.99726L8.2869 4.99964L8.29496 5.00203L8.30302 5.00441L8.31107 5.00679L8.31913 5.00917L8.32719 5.01155L8.33524 5.01393L8.34329 5.01631L8.35134 5.01868L8.35939 5.02106L8.36744 5.02344L8.37549 5.02582L8.38354 5.02819L8.39158 5.03057L8.39963 5.03295L8.40767 5.03532L8.41572 5.0377L8.42376 5.04008L8.4318 5.04245L8.43984 5.04483L8.44788 5.0472L8.45593 5.04958L8.46397 5.05196L8.47201 5.05433L8.48005 5.05671L8.48809 5.05908L8.49613 5.06146L8.50417 5.06383L8.51221 5.06621L8.52025 5.06858L8.52829 5.07096L8.53633 5.07334L8.54438 5.07571L8.55242 5.07809L8.56046 5.08046L8.5685 5.08284L8.57655 5.08522L8.58459 5.08759L8.59264 5.08997L8.60069 5.09235L8.60873 5.09472L8.61678 5.0971L8.62483 5.09948L8.63288 5.10186L8.64094 5.10424L8.64899 5.10662L8.65705 5.109L8.6651 5.11138L8.67316 5.11376L8.68122 5.11614L8.68928 5.11852L8.69734 5.1209L8.70541 5.12329L8.71348 5.12567L8.72154 5.12805L8.72961 5.13044L8.73769 5.13282L8.74576 5.13521L8.75384 5.13759L8.76192 5.13998L8.77 5.14237L8.77808 5.14476L8.78617 5.14714L8.79426 5.14953L8.80235 5.15192L8.81045 5.15432L8.81854 5.15671L8.82664 5.1591L8.83475 5.16149L8.84285 5.16389L8.85096 5.16629L8.85907 5.16868L8.86719 5.17108L8.87531 5.17348L8.88343 5.17588L8.89155 5.17828L8.89968 5.18068L8.90781 5.18308L8.91595 5.18548L8.92409 5.18789L8.93223 5.1903L8.94038 5.1927L8.94853 5.19511L8.95668 5.19752L8.96484 5.19993L8.97301 5.20234L8.98117 5.20475L8.98934 5.20717L8.99752 5.20958L9.0057 5.212L9.01388 5.21442L9.02207 5.21684L9.03027 5.21926L9.03846 5.22168L9.04667 5.2241L9.05487 5.22653L9.06309 5.22895L9.0713 5.23138L9.07952 5.23381L9.08775 5.23624L9.09598 5.23867L9.10422 5.24111L9.11246 5.24354L9.12071 5.24598L9.12896 5.24842L9.13722 5.25086L9.14549 5.2533L9.15376 5.25574L9.16203 5.25819L9.17031 5.26063L9.1786 5.26308L9.1869 5.26553L9.19519 5.26798L9.2035 5.27044L9.21181 5.27289L9.22013 5.27535L9.22845 5.27781L9.23678 5.28027L9.24512 5.28273L9.25346 5.28519L9.26181 5.28766L9.27016 5.29013L9.27853 5.2926L9.28689 5.29507L9.29527 5.29755L9.30365 5.30002L9.31204 5.3025L9.32044 5.30498L9.32884 5.30747L9.33725 5.30995L9.34567 5.31244L9.35409 5.31493L9.36253 5.31742L9.37097 5.31991L9.37941 5.32241L9.38787 5.3249L9.39633 5.3274L9.4048 5.32991L9.41328 5.33241L9.42176 5.33492L9.43026 5.33743L9.43876 5.33994L9.44727 5.34245L9.45578 5.34497L9.46431 5.34749L9.47284 5.35001L9.48139 5.35253L9.48994 5.35506L9.49849 5.35759L9.50706 5.36012L9.51564 5.36265L9.52422 5.36519L9.53282 5.36772L9.54142 5.37027L9.55003 5.37281L9.55865 5.37536L9.56728 5.37791L9.57591 5.38046L9.58456 5.38301L9.59322 5.38557L9.60188 5.38813L9.61056 5.39069L9.61924 5.39326L9.62793 5.39583L9.63664 5.3984L9.64535 5.40097L9.65407 5.40355L9.66281 5.40613L9.67155 5.40871L9.6803 5.4113L9.68906 5.41388L9.69783 5.41648L9.70661 5.41907L9.71541 5.42167L9.72421 5.42427L9.73302 5.42687L9.74184 5.42948L9.75068 5.43209L9.75952 5.4347L9.76837 5.43732L9.77724 5.43993L9.78611 5.44256L9.795 5.44518L9.8039 5.44781L9.81281 5.45044L9.82173 5.45308L9.83066 5.45572L9.8396 5.45836L9.84855 5.461L9.85751 5.46365L9.86649 5.4663L9.87548 5.46896L9.88447 5.47161L9.89348 5.47428L9.9025 5.47694L9.91154 5.47961L9.92058 5.48228L9.92964 5.48496L9.93871 5.48764L9.94779 5.49032L9.95688 5.49301L9.96598 5.49569L9.9751 5.49839L9.98423 5.50109L9.99337 5.50379L10.0025 5.50649L10.0117 5.5092L10.0209 5.51191L10.0301 5.51462L10.0393 5.51734L10.0485 5.52007L10.0577 5.52279L10.0669 5.52552L10.0762 5.52826L10.0855 5.53099L10.0948 5.53374L10.104 5.53648L10.1134 5.53923L10.1227 5.54199L10.132 5.54474L10.1414 5.5475L10.1507 5.55027L10.1601 5.55304L10.1695 5.55581L10.1789 5.55859L10.1883 5.56137L10.1977 5.56416L10.2072 5.56695L10.2166 5.56974L10.2261 5.57254L10.2356 5.57534L10.2451 5.57815L10.2546 5.58096L10.2641 5.58377L10.2737 5.58659L10.2832 5.58941L10.2928 5.59224L10.3024 5.59507L10.312 5.59791L10.3216 5.60075L10.3312 5.6036L10.3409 5.60644L10.3505 5.6093L10.3602 5.61216L10.3699 5.61502L10.3796 5.61789L10.3893 5.62076L10.399 5.62363L10.4088 5.62651L10.4186 5.6294L10.4283 5.63229L10.4381 5.63518L10.4479 5.63808L10.4578 5.64099L10.4676 5.64389L10.4775 5.64681L10.4874 5.64972L10.4972 5.65265L10.5072 5.65557L10.5171 5.6585L10.527 5.66144L10.537 5.66438L10.5469 5.66733L10.5569 5.67028L10.5669 5.67324L10.577 5.6762L10.587 5.67916L10.5971 5.68213L10.6071 5.68511L10.6172 5.68809L10.6273 5.69107L10.6374 5.69406L10.6476 5.69706L10.6577 5.70006L10.6679 5.70306L10.6781 5.70608L10.6883 5.70909L10.6985 5.71211L10.7088 5.71514L10.719 5.71817L10.7293 5.72121L10.7396 5.72425C11.4295 5.92805 12.049 5.45113 12.2187 4.84754L12.5251 3.75786C12.6949 3.15427 12.418 2.41254 11.7282 2.20874L7.22511 0.878407C6.53527 0.674607 5.91573 1.15152 5.74601 1.75511L5.43959 2.84479C5.26986 3.44838 5.54672 4.19012 6.23657 4.39392Z" stroke="#292D32" stroke-width="1.2" stroke-linecap="round" stroke-linejoin="round"/>
<path d="M2.99781 12.4242C3.0695 12.5006 3.16144 12.5591 3.26758 12.5904C3.31064 12.603 3.43423 12.6427 3.62154 12.7028C3.79087 12.7571 4.01226 12.8282 4.27329 12.9111C4.81214 13.0823 5.50011 13.2977 6.18116 13.4991C6.85927 13.6996 7.54213 13.8898 8.06681 14.008C8.32521 14.0663 8.56783 14.1123 8.75967 14.1298C8.85016 14.138 8.96768 14.1438 9.08246 14.1264C9.13884 14.1179 9.23261 14.0985 9.33065 14.0445C9.43546 13.9867 9.57975 13.8678 9.63872 13.6587L9.94528 12.5717C10.1385 11.8866 9.72026 11.1935 9.05998 10.999L4.40559 9.62794C3.74531 9.43344 3.0303 9.79276 2.83712 10.4778C2.79952 10.6111 2.75277 10.7331 2.70029 10.8699C2.69548 10.8825 2.69061 10.8952 2.6857 10.908L2.68378 10.913C2.63336 11.0448 2.56199 11.2314 2.53378 11.4169C2.50195 11.6262 2.51273 11.9121 2.71291 12.1722C2.79435 12.278 2.89267 12.3599 2.99781 12.4242Z" stroke="#292D32" stroke-width="1.2" stroke-linecap="round" stroke-linejoin="round"/>
<path d="M2.99781 12.4244C3.0695 12.5007 3.16144 12.5592 3.26758 12.5905C3.31064 12.6032 3.43423 12.6428 3.62154 12.7029C3.79087 12.7573 4.01226 12.8283 4.27329 12.9112C4.81214 13.0824 5.50011 13.2978 6.18116 13.4992C6.85927 13.6997 7.54213 13.8899 8.06681 14.0081C8.32521 14.0664 8.56783 14.1125 8.75967 14.1299C8.85016 14.1381 8.96768 14.144 9.08246 14.1266C9.13884 14.118 9.23261 14.0986 9.33065 14.0446C9.43546 13.9868 9.57975 13.8679 9.63872 13.6588L9.94528 12.5718C10.1385 11.8868 9.72026 11.1936 9.05998 10.9991L4.40559 9.62806C3.74531 9.43356 3.0303 9.79289 2.83712 10.4779C2.79952 10.6112 2.75277 10.7332 2.70029 10.8701C2.69548 10.8826 2.69061 10.8953 2.6857 10.9082L2.68378 10.9132C2.63336 11.0449 2.56199 11.2315 2.53378 11.417C2.50195 11.6264 2.51273 11.9122 2.71291 12.1723C2.79435 12.2782 2.89267 12.36 2.99781 12.4244Z" stroke="#292D32" stroke-width="1.2" stroke-linecap="round" stroke-linejoin="round"/>
<path d="M13.9954 7.4467C13.6296 7.3715 13.331 7.31013 13.1276 7.26221L12.2734 7.68614C12.2734 7.6864 12.2733 7.68667 12.2732 7.68693C12.2122 7.92157 12.1172 8.20119 12.0084 8.52113C12.0017 8.54083 11.995 8.56068 11.9882 8.58068C11.8752 8.91351 11.7511 9.28304 11.6646 9.6298C11.5815 9.96254 11.513 10.3479 11.5615 10.6924C11.587 10.873 11.649 11.0765 11.789 11.2563C11.9358 11.4446 12.1369 11.5663 12.3657 11.6225C12.6942 11.7033 13.2645 11.9166 14.0152 12.1974C14.1438 12.2455 14.2777 12.2955 14.4165 12.3473C15.3381 12.6906 16.4327 13.0876 17.5015 13.3856C18.557 13.6798 19.6489 13.8957 20.5491 13.837C21.003 13.8075 21.4555 13.7057 21.8367 13.4677C22.2354 13.2188 22.5184 12.8436 22.6445 12.3526C22.912 11.3113 22.2897 10.5042 21.5305 9.94766C20.762 9.38432 19.6844 8.93839 18.5885 8.58281C16.9732 8.05876 15.1496 7.68394 13.9954 7.4467Z" stroke="#292D32" stroke-width="1.2" stroke-linecap="round" stroke-linejoin="round"/>
<path d="M14.4487 12.1795C14.2843 12.1333 14.1875 11.9712 14.2329 11.8182L15.0557 8.48435C15.1011 8.33133 15.4674 8.07579 15.6318 8.12202C15.7966 8.16836 15.6787 8.14468 15.6333 8.2977L14.8291 11.9859C14.7837 12.1389 14.6135 12.2259 14.4487 12.1795Z" fill="#292D32" stroke="#292D32" stroke-width="0.92763" stroke-linecap="round" stroke-linejoin="round"/>
<path d="M10.002 7.50037C10.0842 7.35073 10.0146 7.27961 10.1534 7.35847L11.6327 7.75222C11.7714 7.83107 12.0842 7.85024 12.0019 7.99988C12.0019 7.99988 11.6389 10.0788 11.5001 9.99996L9.50195 9.50037C9.36318 9.42151 9.9195 7.65036 10.002 7.50037Z" stroke="#292D32" stroke-width="0.92763" stroke-linecap="round" stroke-linejoin="round"/>
<path d="M2.03749 23.3008H11.2983C11.7893 23.3008 12.1877 22.9023 12.1877 22.4113V21.2539C12.1877 20.3377 11.4434 19.5927 10.5265 19.5927H2.80923C1.89285 19.5927 1.14805 20.3376 1.14805 21.2539V22.4113C1.14805 22.9023 1.54651 23.3008 2.03749 23.3008Z" stroke="#292D32" stroke-width="1.2" stroke-linecap="round" stroke-linejoin="round"/>
<path d="M2.97227 18.6323C2.97227 18.9637 3.24089 19.2323 3.57227 19.2323H3.60718H3.64181H3.67618H3.71028H3.7441H3.77766H3.81095H3.84397H3.87673H3.90923H3.94146H3.97343H4.00513H4.03658H4.06777H4.0987H4.12938H4.1598H4.18996H4.21988H4.24953H4.27894H4.3081H4.33701H4.36567H4.39408H4.42225H4.45017H4.47785H4.50528H4.53248H4.55943H4.58614H4.61262H4.63886H4.66486H4.69062H4.71615H4.74145H4.76652H4.79135H4.81596H4.84034H4.86448H4.88841H4.9121H4.93557H4.95882H4.98185H5.00465H5.02724H5.0496H5.07175H5.09368H5.11539H5.13689H5.15817H5.17924H5.2001H5.22075H5.24119H5.26142H5.28145H5.30126H5.32087H5.34028H5.35949H5.37849H5.39729H5.41589H5.43429H5.45249H5.4705H5.48831H5.50593H5.52335H5.54058H5.55762H5.57447H5.59113H5.6076H5.62389H5.63999H5.6559H5.67163H5.68717H5.70254H5.71772H5.73273H5.74755H5.7622H5.77667H5.79097H5.80509H5.81904H5.83281H5.84642H5.85985H5.87312H5.88622H5.89915H5.91191H5.92451H5.93695H5.94922H5.96134H5.97329H5.98508H5.99672H6.0082H6.01952H6.03068H6.0417H6.05255H6.06326H6.07382H6.08423H6.09448H6.10459H6.11456H6.12438H6.13405H6.14358H6.15297H6.16222H6.17133H6.1803H6.18913H6.19782H6.20638H6.2148H6.22309H6.23125H6.23927H6.24717H6.25493H6.26257H6.27008H6.27746H6.28472H6.29185H6.29886H6.30575H6.31252H6.31917H6.3257H6.33211H6.33841H6.34459H6.35065H6.35661H6.36245H6.36817H6.37379H6.3793H6.3847H6.39H6.39519H6.40027H6.40525H6.41013H6.4149H6.41958H6.42415H6.42863H6.43301H6.4373H6.44148H6.44558H6.44958H6.45349H6.45731H6.46104H6.46468H6.46823H6.47169H6.47507H6.47837H6.48158H6.48471H6.48776H6.49073H6.49362H6.49643H6.49916H6.50182H6.5044H6.50691H6.50935H6.51171H6.51401H6.51623H6.51839H6.52048H6.5225H6.52446H6.52635H6.52818H6.52995H6.53166H6.5333H6.53489H6.53642H6.5379H6.53932H6.54068H6.54199H6.54325H6.54446H6.54561H6.54672H6.54778H6.54879H6.54976H6.55068H6.55155H6.55239H6.55318H6.55393H6.55465H6.55532H6.55596H6.55656H6.55712H6.55765H6.55815H6.55862H6.55905H6.55945H6.55983H6.56018H6.5605H6.56079H6.56106H6.56131H6.56154H6.56174H6.56192H6.56209H6.56223H6.56236H6.56247H6.56257H6.56265H6.56273H6.56278H6.56283H6.56287H6.5629H6.56292H6.56294H6.56295H6.56296H6.56296H6.56297H6.56297H6.56298H6.563H6.56302H6.56305H6.56309H6.56314H6.5632H6.56327H6.56335H6.56345H6.56356H6.56369H6.56384H6.564H6.56419H6.56439H6.56461H6.56486H6.56513H6.56543H6.56575H6.5661H6.56647H6.56688H6.56731H6.56778H6.56827H6.5688H6.56937H6.56997H6.57061H6.57128H6.57199H6.57274H6.57354H6.57437H6.57525H6.57617H6.57714H6.57815H6.57921H6.58031H6.58147H6.58268H6.58393H6.58525H6.58661H6.58803H6.5895H6.59103H6.59262H6.59427H6.59598H6.59774H6.59957H6.60147H6.60342H6.60545H6.60754H6.60969H6.61192H6.61421H6.61658H6.61901H6.62152H6.62411H6.62676H6.6295H6.63231H6.6352H6.63817H6.64121H6.64434H6.64756H6.65085H6.65423H6.6577H6.66125H6.66489H6.66862H6.67244H6.67635H6.68035H6.68444H6.68863H6.69291H6.69729H6.70177H6.70635H6.71102H6.7158H6.72068H6.72566H6.73074H6.73593H6.74122H6.74662H6.75213H6.75775H6.76348H6.76932H6.77527H6.78134H6.78752H6.79381H6.80023H6.80676H6.8134H6.82017H6.82706H6.83407H6.84121H6.84847H6.85585H6.86336H6.871H6.87876H6.88665H6.89468H6.90284H6.91113H6.91955H6.92811H6.9368H6.94563H6.9546H6.96371H6.97295H6.98234H6.99187H7.00155H7.01137H7.02133H7.03144H7.0417H7.05211H7.06266H7.07337H7.08423H7.09524H7.10641H7.11773H7.12921H7.14084H7.15264H7.16459H7.1767H7.18898H7.20141H7.21401H7.22678H7.23971H7.25281H7.26607H7.27951H7.29311H7.30689H7.32084H7.33496H7.34926H7.36373H7.37837H7.3932H7.4082H7.42339H7.43875H7.4543H7.47003H7.48594H7.50204H7.51832H7.53479H7.55145H7.5683H7.58534H7.60257H7.62H7.63761H7.65542H7.67343H7.69163H7.71004H7.72864H7.74744H7.76644H7.78564H7.80505H7.82466H7.84448H7.8645H7.88473H7.90517H7.92582H7.94668H7.96775H7.98904H8.01054H8.03225H8.05418H8.07633H8.09869H8.12127H8.14408H8.1671H8.19035H8.21382H8.23752H8.26144H8.28559H8.30997H8.33457H8.35941H8.38447H8.40977H8.4353H8.46107H8.48707H8.51331H8.53978H8.5665H8.59345H8.62064H8.64808H8.67576H8.70368H8.73185H8.76026H8.78892H8.81783H8.84698H8.87639H8.90605H8.93596H8.96613H8.99655H9.02722H9.05815H9.08934H9.12079H9.1525H9.18447H9.2167H9.24919H9.28195H9.31498H9.34827H9.38182H9.41565H9.44975H9.48411H9.51875H9.55366C9.88503 19.2323 10.1537 18.9637 10.1537 18.6323C10.1537 17.716 9.40886 16.9712 8.49248 16.9712H4.63344C3.71655 16.9712 2.97227 17.7161 2.97227 18.6323Z" stroke="#292D32" stroke-width="1.2" stroke-linecap="round" stroke-linejoin="round"/>
</svg>
