<svg width="25" height="25" viewBox="0 0 25 25" fill="none" xmlns="http://www.w3.org/2000/svg">
<path d="M7.02653 2.64132C7.29805 2.37442 7.70532 2.05747 7.92593 1.9407C8.1635 1.84061 8.62169 1.74053 8.94411 1.74053C9.26654 1.72384 9.7926 1.87398 10.0981 2.05747C10.3865 2.24097 10.6411 2.44115 10.6411 2.52455C11.5633 3.34194 10.5732 2.89154 10.4714 3.19181C10.3865 3.47539 10.2677 3.72562 10.2168 3.72562C10.1659 3.72562 9.92835 3.57548 9.67381 3.39199C9.35138 3.15845 9.04593 3.07504 8.74047 3.14177C8.46896 3.19181 8.1635 3.32526 8.04471 3.42535C7.90896 3.54212 7.72229 3.92579 7.41683 4.89332L6.46653 4.87664C5.61804 4.85995 5.44835 4.91 5.0241 5.32703C4.71865 5.64398 4.51501 6.04433 4.44713 6.47805C4.40204 6.84745 4.52525 7.63414 4.70168 7.82925C4.83744 7.97938 5.24471 8.24628 5.5841 8.4131C6.07623 8.64664 6.22895 8.83013 6.22895 9.14708C6.22895 9.38062 6.0932 9.63084 5.94047 9.71425C5.73683 9.81434 5.43138 9.78098 5.09198 9.63084C4.78653 9.49739 4.4641 9.43067 4.36228 9.48071C4.26047 9.53075 4.0738 9.96447 3.92107 10.4316C3.7344 10.9987 3.66652 11.6493 3.71743 12.2331C3.76834 12.8003 3.95501 13.4008 4.20956 13.8012C4.43016 14.1682 4.88835 14.652 5.21077 14.8855C5.53319 15.119 6.1441 15.3526 6.55138 15.4026C6.95865 15.4527 7.34896 15.5694 7.41683 15.6528C7.50168 15.7362 7.6035 16.0365 7.65441 16.3201C7.70532 16.6037 7.92593 16.954 8.12956 17.1208C8.35017 17.2876 8.70653 17.4211 8.94411 17.4211C9.18169 17.4211 9.52108 17.2543 9.70775 17.0708C9.89441 16.8873 10.0811 16.7204 10.132 16.7371C10.1829 16.7371 10.3187 17.004 10.4374 17.321C10.5393 17.6379 10.7837 17.589 10.7328 17.6724C10.6819 17.7558 10.2168 18.3552 9.92835 18.4887C9.6229 18.6388 9.11381 18.7389 8.82532 18.7389C8.51987 18.7389 7.95987 18.5554 7.58653 18.3219C7.2132 18.0883 6.78895 17.6546 6.63623 17.3543C6.44956 16.954 6.17804 16.7538 5.53319 16.5203C5.07501 16.3701 4.43016 15.9865 4.09077 15.6862C3.75137 15.4026 3.29319 14.8521 3.07258 14.4851C2.52834 13.5798 2.42773 12.7876 2.42773 11.7327C2.42773 10.6484 2.51258 10.3315 2.98774 9.3973C3.36107 8.68 3.49683 8.2296 3.41198 8.06279C3.32713 7.92934 3.24228 7.6958 3.20834 7.56235C3.19137 7.42889 3.15743 6.99518 3.1744 6.59482C3.1744 6.21115 3.29319 5.64398 3.42895 5.34371C3.56471 5.06013 3.93804 4.55969 4.27743 4.25942C4.69631 3.891 5.25392 3.5588 5.80471 3.5588C6.3138 3.5588 6.56835 3.49208 6.56835 3.34194C6.55138 3.24185 6.77199 2.90823 7.02653 2.64132Z" fill="#929292"/>
<path d="M19.1938 11.0988C19.1769 11.2156 19.1429 11.1655 19.1429 10.982C19.1259 10.7985 19.1429 10.6985 19.1769 10.7652C19.2108 10.8319 19.2108 10.982 19.1938 11.0988Z" fill="#929292"/>
<path fill-rule="evenodd" clip-rule="evenodd" d="M12.8641 1.75679C13.3732 1.79015 13.8371 1.96252 14.2557 2.27391C14.5951 2.52413 14.9175 2.87444 14.9684 3.05794C15.0193 3.24143 15.2399 3.42493 15.4775 3.47497C15.7151 3.52502 16.0884 3.59174 16.326 3.64179C16.5635 3.69183 17.0217 3.97541 17.3611 4.27568C17.7005 4.55926 18.0908 5.04303 18.2266 5.30993C18.3623 5.57683 18.4811 6.19405 18.4811 6.64444C18.4811 7.11152 18.3963 7.64533 18.2945 7.86219C18.1417 8.16245 18.1926 8.39599 18.6508 9.28011C19.126 10.1976 19.1939 10.4812 19.1939 11.7323C19.2108 12.9333 19.1429 13.2837 18.7526 14.0677C18.4981 14.5848 17.9551 15.3021 17.4799 15.7025C17.0217 16.1195 16.3769 16.5032 15.9866 16.6033C15.4775 16.7367 15.2229 16.9202 14.9684 17.3706C14.7817 17.7042 14.3575 18.1546 14.0351 18.3548C13.6617 18.605 13.1866 18.7552 12.7623 18.7385C12.3098 18.7385 11.846 18.5883 11.3708 18.2881C10.9635 18.0212 10.5732 17.6542 10.4714 17.454C10.3171 17.2569 10.0927 16.7367 10.0927 16.7367C10.0079 16.7701 10.0472 13.7841 10.0472 10.231C10.0472 6.67781 10.0811 3.77524 10.132 3.8086C10.1829 3.84196 10.3017 3.59174 10.4205 3.25811C10.5563 2.84108 10.8617 2.49077 11.3538 2.17382C11.9478 1.79015 12.2363 1.70674 12.8641 1.75679Z" fill="#292D32" fill-opacity="0.19"/>
<path fill-rule="evenodd" clip-rule="evenodd" d="M12.8645 1.75679C13.3736 1.79015 13.8374 1.96252 14.256 2.27391C14.5954 2.52413 14.9178 2.87444 14.9687 3.05794C15.0197 3.24143 15.2403 3.42493 15.4778 3.47497C15.7154 3.52502 16.0888 3.59174 16.3263 3.64179C16.5639 3.69183 17.0221 3.97541 17.3615 4.27568C17.7009 4.55927 18.0912 5.04303 18.2269 5.30993C18.3627 5.57683 18.4815 6.19405 18.4815 6.64444C18.4815 7.11152 18.3966 7.64533 18.2948 7.86219C18.1421 8.16245 18.193 8.39599 18.6512 9.28011C19.1263 10.1976 19.1942 10.4812 19.1942 11.7323C19.2112 12.9333 19.1433 13.2837 18.753 14.0677C18.4985 14.5848 17.9554 15.3021 17.4803 15.7025C17.0221 16.1195 16.3772 16.5032 15.9869 16.6033C15.4778 16.7367 15.2233 16.9202 14.9687 17.3706C14.7821 17.7042 14.3578 18.1546 14.0354 18.3548C13.6621 18.605 13.1869 18.7552 12.7627 18.7385C12.3102 18.7385 11.8463 18.5883 11.3712 18.2881C10.9639 18.0212 10.5736 17.6542 10.4718 17.454C9.59755 15.7358 10.0475 12.122 10.0475 10.231C10.0475 6.67781 10.0815 3.77524 10.1324 3.8086C10.1833 3.84196 10.3021 3.59174 10.4209 3.25811C10.5566 2.84108 10.8621 2.49077 11.3542 2.17382C11.9481 1.79015 12.2366 1.70674 12.8645 1.75679ZM11.6936 3.70851C11.5409 3.90869 11.49 5.41002 11.49 10.1475C11.49 14.8017 11.5409 16.4198 11.7106 16.7367C11.8294 16.9702 12.1178 17.2372 12.3724 17.3206C12.7118 17.454 12.9154 17.4206 13.2548 17.2038C13.4924 17.037 13.7809 16.7033 13.8827 16.4531C13.9845 16.1862 14.1372 15.8693 14.2051 15.7358C14.273 15.6024 14.6633 15.4356 15.0706 15.3521C15.4778 15.2854 16.1057 15.0185 16.4621 14.7683C16.8863 14.4847 17.2766 13.9843 17.5651 13.4004C17.9215 12.6331 17.9724 12.3328 17.9045 11.5655C17.8536 11.065 17.6839 10.3811 17.5142 10.0641C17.2427 9.49697 17.2088 9.48029 16.6148 9.63042C16.2584 9.71383 15.8512 9.73051 15.6984 9.68046C15.5118 9.61374 15.393 9.39688 15.393 9.14666C15.393 8.86307 15.5457 8.6629 15.8681 8.49608C16.1227 8.36263 16.496 8.07905 16.6827 7.86219C16.8863 7.66201 17.09 7.29502 17.1409 7.06148C17.1918 6.82794 17.1578 6.39422 17.073 6.11064C16.9881 5.81037 16.7166 5.41002 16.4621 5.22652C16.1397 4.99298 15.7324 4.87621 15.2233 4.89289C14.7991 4.89289 14.3748 4.82617 14.256 4.75944C14.1542 4.69272 14.0015 4.42581 13.9166 4.15891C13.8487 3.89201 13.5942 3.52502 13.3566 3.3582C13.119 3.19139 12.8645 3.05794 12.7627 3.05794C12.6778 3.05794 12.4403 3.15803 12.2536 3.25811C12.0669 3.3582 11.8124 3.55838 11.6936 3.70851Z" fill="#292D32" stroke="#F2F1F9" stroke-width="0.2"/>
</svg>
