<svg width="18" height="19" viewBox="0 0 18 19" fill="none" xmlns="http://www.w3.org/2000/svg">
<path d="M5.76001 2.24103C6.00333 2.00184 6.36832 1.71779 6.56603 1.61315C6.77894 1.52345 7.18955 1.43375 7.4785 1.43375C7.76745 1.4188 8.23889 1.55335 8.51263 1.71779C8.77117 1.88224 8.99929 2.06163 8.99929 2.13638C9.82578 2.86891 8.93845 2.46527 8.84721 2.73436C8.77117 2.9885 8.66471 3.21275 8.61909 3.21275C8.57346 3.21275 8.36055 3.0782 8.13244 2.91376C7.84349 2.70446 7.56974 2.62971 7.296 2.68951C7.05268 2.73436 6.77893 2.85396 6.67248 2.94365C6.55082 3.0483 6.38353 3.39214 6.10979 4.25921L5.25815 4.24426C4.49775 4.22931 4.34567 4.27416 3.96548 4.6479C3.69174 4.93194 3.50924 5.29073 3.44841 5.67942C3.408 6.01046 3.51841 6.71547 3.67653 6.89033C3.79819 7.02487 4.16318 7.26406 4.46734 7.41356C4.90837 7.62285 5.04524 7.7873 5.04524 8.07134C5.04524 8.28063 4.92357 8.50487 4.7867 8.57962C4.60421 8.66932 4.33047 8.63942 4.02631 8.50487C3.75257 8.38528 3.46362 8.32548 3.37237 8.37033C3.28112 8.41518 3.11384 8.80386 2.97697 9.22245C2.80968 9.73073 2.74885 10.3138 2.79447 10.837C2.84009 11.3453 3.00738 11.8835 3.2355 12.2423C3.4332 12.5711 3.84381 13.0047 4.13276 13.214C4.42171 13.4233 4.9692 13.6326 5.33419 13.6774C5.69918 13.7223 6.04896 13.8269 6.10979 13.9016C6.18583 13.9764 6.27707 14.2455 6.3227 14.4996C6.36832 14.7538 6.56602 15.0677 6.74852 15.2172C6.94622 15.3667 7.26559 15.4863 7.4785 15.4863C7.69141 15.4863 7.99557 15.3368 8.16285 15.1724C8.33014 15.0079 8.49743 14.8584 8.54305 14.8734C8.58867 14.8734 8.71034 15.1126 8.81679 15.3966C8.90804 15.6806 9.12712 15.6368 9.08149 15.7115C9.03587 15.7863 8.61909 16.3235 8.36055 16.4431C8.08681 16.5776 7.63058 16.6673 7.37204 16.6673C7.0983 16.6673 6.59644 16.5029 6.26187 16.2936C5.92729 16.0843 5.5471 15.6956 5.41023 15.4265C5.24294 15.0677 4.99961 14.8883 4.42171 14.679C4.0111 14.5445 3.4332 14.2006 3.12904 13.9315C2.82489 13.6774 2.41427 13.1841 2.21657 12.8552C2.01887 12.5263 1.80596 12.0928 1.74513 11.8835C1.6843 11.6742 1.63867 11.0014 1.63867 10.3885C1.63867 9.41679 1.71471 9.13275 2.14053 8.29558C2.47511 7.65275 2.59677 7.24911 2.52073 7.09962C2.44469 6.98002 2.36865 6.77073 2.33823 6.65113C2.32303 6.53154 2.29261 6.14285 2.30782 5.78406C2.30782 5.44022 2.41427 4.93194 2.53594 4.66285C2.6576 4.40871 2.99217 3.96022 3.29633 3.69113C3.67172 3.36096 4.17144 3.06325 4.66504 3.06325C5.12128 3.06325 5.34939 3.00345 5.34939 2.86891C5.33419 2.77921 5.53189 2.48022 5.76001 2.24103Z" fill="#6161FF"/>
<path d="M16.6641 9.82043C16.6488 9.92508 16.6184 9.88023 16.6184 9.71578C16.6032 9.55134 16.6184 9.46164 16.6488 9.52144C16.6793 9.58124 16.6793 9.71578 16.6641 9.82043Z" fill="#6161FF"/>
<path fill-rule="evenodd" clip-rule="evenodd" d="M10.9916 1.44854C11.4479 1.47844 11.8636 1.63291 12.2387 1.91197C12.5428 2.13621 12.8318 2.45015 12.8774 2.6146C12.923 2.77904 13.1207 2.94349 13.3336 2.98834C13.5466 3.03319 13.8811 3.09298 14.094 3.13783C14.307 3.18268 14.7176 3.43682 15.0217 3.70591C15.3259 3.96005 15.6757 4.39359 15.7973 4.63278C15.919 4.87197 16.0254 5.42511 16.0254 5.82874C16.0254 6.24733 15.9494 6.72571 15.8582 6.92006C15.7213 7.18915 15.7669 7.39844 16.1775 8.19077C16.6033 9.01299 16.6642 9.26713 16.6642 10.3883C16.6794 11.4647 16.6186 11.7786 16.2688 12.4813C16.0407 12.9447 15.554 13.5875 15.1282 13.9463C14.7176 14.3201 14.1397 14.6639 13.7899 14.7536C13.3336 14.8732 13.1055 15.0376 12.8774 15.4413C12.7101 15.7403 12.3299 16.1439 12.041 16.3233C11.7064 16.5475 11.2806 16.6821 10.9004 16.6671C10.4948 16.6671 10.0792 16.5326 9.65334 16.2635C9.28835 16.0243 8.93857 15.6954 8.84733 15.516C8.70902 15.3394 8.50795 14.8732 8.50795 14.8732C8.43191 14.9031 8.46713 12.2271 8.46713 9.04289C8.46713 5.85864 8.49754 3.25743 8.54317 3.28733C8.58879 3.31723 8.69525 3.09298 8.8017 2.79399C8.92337 2.42026 9.19711 2.10632 9.63814 1.82227C10.1704 1.47844 10.4289 1.40369 10.9916 1.44854Z" fill="#6161FF" fill-opacity="0.34"/>
<path fill-rule="evenodd" clip-rule="evenodd" d="M10.9926 1.44854C11.4488 1.47844 11.8645 1.63291 12.2397 1.91197C12.5438 2.13621 12.8328 2.45015 12.8784 2.6146C12.924 2.77904 13.1217 2.94349 13.3346 2.98834C13.5475 3.03319 13.8821 3.09298 14.095 3.13783C14.3079 3.18268 14.7185 3.43682 15.0227 3.70591C15.3269 3.96005 15.6766 4.39359 15.7983 4.63278C15.92 4.87197 16.0264 5.42511 16.0264 5.82874C16.0264 6.24733 15.9504 6.72571 15.8591 6.92006C15.7223 7.18915 15.7679 7.39844 16.1785 8.19077C16.6043 9.01299 16.6652 9.26713 16.6652 10.3883C16.6804 11.4647 16.6195 11.7786 16.2697 12.4813C16.0416 12.9447 15.555 13.5875 15.1292 13.9463C14.7185 14.3201 14.1406 14.6639 13.7909 14.7536C13.3346 14.8732 13.1065 15.0376 12.8784 15.4413C12.7111 15.7403 12.3309 16.1439 12.042 16.3233C11.7074 16.5475 11.2816 16.6821 10.9014 16.6671C10.4958 16.6671 10.0801 16.5326 9.65432 16.2635C9.28933 16.0243 8.93955 15.6954 8.8483 15.516C8.70999 15.3394 8.50893 14.8732 8.50893 14.8732C8.43289 14.9031 8.46811 12.2271 8.46811 9.04289C8.46811 5.85864 8.49852 3.25743 8.54414 3.28733C8.58977 3.31723 8.69622 3.09298 8.80268 2.79399C8.92434 2.42026 9.19808 2.10632 9.63911 1.82227C10.1714 1.47844 10.4299 1.40369 10.9926 1.44854ZM9.94327 3.19763C9.8064 3.37702 9.76077 4.72248 9.76077 8.96814C9.76077 13.1391 9.8064 14.5892 9.95848 14.8732C10.0649 15.0825 10.3235 15.3217 10.5516 15.3964C10.8557 15.516 11.0382 15.4861 11.3424 15.2918C11.5553 15.1423 11.8138 14.8433 11.9051 14.6191C11.9963 14.3799 12.1332 14.0958 12.194 13.9762C12.2549 13.8566 12.6046 13.7071 12.9696 13.6324C13.3346 13.5726 13.8973 13.3334 14.2167 13.1092C14.5969 12.855 14.9467 12.4065 15.2052 11.8833C15.5246 11.1956 15.5702 10.9265 15.5094 10.2388C15.4637 9.79036 15.3117 9.17743 15.1596 8.89339C14.9162 8.38511 14.8858 8.37016 14.3536 8.50471C14.0342 8.57945 13.6692 8.5944 13.5323 8.54955C13.365 8.48976 13.2586 8.29541 13.2586 8.07117C13.2586 7.81703 13.3955 7.63763 13.6844 7.48814C13.9125 7.36854 14.2471 7.1144 14.4144 6.92006C14.5969 6.74066 14.7794 6.41177 14.825 6.20248C14.8706 5.99319 14.8402 5.6045 14.7642 5.35036C14.6881 5.08127 14.4448 4.72248 14.2167 4.55803C13.9277 4.34874 13.5627 4.2441 13.1065 4.25904C12.7263 4.25904 12.3461 4.19925 12.2397 4.13945C12.1484 4.07965 12.0115 3.84046 11.9355 3.60127C11.8747 3.36207 11.6466 3.03319 11.4336 2.88369C11.2207 2.73419 10.9926 2.6146 10.9014 2.6146C10.8253 2.6146 10.6124 2.7043 10.4451 2.79399C10.2778 2.88369 10.0497 3.06308 9.94327 3.19763Z" fill="#6161FF"/>
</svg>
