<svg width="11" height="3" viewBox="0 0 11 3" fill="none" xmlns="http://www.w3.org/2000/svg">
<path fill-rule="evenodd" clip-rule="evenodd" d="M9.69583 0.163086C10.2478 0.163086 10.6958 0.610086 10.6958 1.16309C10.6958 1.71609 10.2478 2.16309 9.69583 2.16309C9.14383 2.16309 8.69183 1.71609 8.69183 1.16309C8.69183 0.610086 9.13483 0.163086 9.68683 0.163086H9.69583ZM5.68703 0.163086C6.23903 0.163086 6.68703 0.610086 6.68703 1.16309C6.68703 1.71609 6.23903 2.16309 5.68703 2.16309C5.13503 2.16309 4.68303 1.71609 4.68303 1.16309C4.68303 0.610086 5.12503 0.163086 5.67803 0.163086H5.68703ZM1.67783 0.163086C2.22983 0.163086 2.67783 0.610086 2.67783 1.16309C2.67783 1.71609 2.22983 2.16309 1.67783 2.16309C1.12583 2.16309 0.673828 1.71609 0.673828 1.16309C0.673828 0.610086 1.11683 0.163086 1.66883 0.163086H1.67783Z" fill="#777777"/>
</svg>
