<svg width="21" height="22" viewBox="0 0 21 22" fill="none" xmlns="http://www.w3.org/2000/svg">
<path d="M13.8516 0.662109V5.1327" stroke="black" stroke-width="1.26667" stroke-linecap="round" stroke-linejoin="round"/>
<path d="M7.14844 0.662109V5.1327" stroke="black" stroke-width="1.26667" stroke-linecap="round" stroke-linejoin="round"/>
<path d="M1.01953 10.7202H19.9807" stroke="black" stroke-width="1.26667" stroke-linecap="round" stroke-linejoin="round"/>
<path d="M1 11.8379C1 19.1026 3.23529 21.3379 10.5 21.3379C17.7647 21.3379 20 19.1026 20 11.8379C20 11.4512 19.9936 11.0788 19.9806 10.7202C19.7479 4.34157 17.378 2.33789 10.5 2.33789C3.62196 2.33789 1.25219 4.34157 1.01941 10.7202C1.00634 11.0788 1 11.4512 1 11.8379Z" stroke="black" stroke-width="1.26667" stroke-linecap="round" stroke-linejoin="round"/>
<circle cx="7.33268" cy="14.1203" r="0.791667" fill="black"/>
<circle cx="7.33268" cy="17.2868" r="0.791667" fill="black"/>
<circle cx="10.5007" cy="14.1203" r="0.791667" fill="black"/>
<circle cx="10.5007" cy="17.2868" r="0.791667" fill="black"/>
<circle cx="13.6667" cy="14.1203" r="0.791667" fill="black"/>
<circle cx="13.6667" cy="17.2868" r="0.791667" fill="black"/>
</svg>
