<svg width="30" height="30" viewBox="0 0 30 30" fill="none" xmlns="http://www.w3.org/2000/svg">
<path opacity="0.4" d="M22.0104 3.79492H7.45011C4.76859 3.79492 2.59668 5.9547 2.59668 8.61195V20.8183C2.59668 23.4756 4.76859 25.6354 7.45011 25.6354H22.0104C24.6919 25.6354 26.8638 23.4756 26.8638 20.8183V8.61195C26.8638 5.9547 24.6919 3.79492 22.0104 3.79492Z" fill="#6161FF"/>
<path d="M23.2229 10.7717H17.1561C16.6586 10.7717 16.2461 10.3592 16.2461 9.86168C16.2461 9.3642 16.6586 8.95166 17.1561 8.95166H23.2229C23.7204 8.95166 24.1329 9.3642 24.1329 9.86168C24.1329 10.3592 23.7204 10.7717 23.2229 10.7717Z" fill="#6161FF"/>
<path d="M23.2244 15.6262H18.371C17.8735 15.6262 17.4609 15.2136 17.4609 14.7162C17.4609 14.2187 17.8735 13.8062 18.371 13.8062H23.2244C23.7219 13.8062 24.1344 14.2187 24.1344 14.7162C24.1344 15.2136 23.7219 15.6262 23.2244 15.6262Z" fill="#6161FF"/>
<path d="M23.2225 20.4792H20.7958C20.2983 20.4792 19.8857 20.0667 19.8857 19.5692C19.8857 19.0717 20.2983 18.6592 20.7958 18.6592H23.2225C23.72 18.6592 24.1325 19.0717 24.1325 19.5692C24.1325 20.0667 23.72 20.4792 23.2225 20.4792Z" fill="#6161FF"/>
<path d="M10.4845 14.4617C12.0325 14.4617 13.2874 13.2068 13.2874 11.6588C13.2874 10.1108 12.0325 8.85596 10.4845 8.85596C8.93652 8.85596 7.68164 10.1108 7.68164 11.6588C7.68164 13.2068 8.93652 14.4617 10.4845 14.4617Z" fill="#6161FF"/>
<path d="M11.4548 16.0621C10.8118 16.0014 10.1444 16.0014 9.50133 16.0621C7.46288 16.2562 5.82485 17.87 5.63071 19.9084C5.61858 20.0783 5.66712 20.2482 5.78845 20.3695C5.90979 20.4909 6.06752 20.5758 6.23739 20.5758H14.7309C14.9008 20.5758 15.0706 20.503 15.1798 20.3817C15.289 20.2603 15.3497 20.0905 15.3376 19.9206C15.1313 17.87 13.5054 16.2562 11.4548 16.0621Z" fill="#6161FF"/>
</svg>
