<svg width="94" height="93" viewBox="0 0 94 93" fill="none" xmlns="http://www.w3.org/2000/svg">
<path d="M40.7382 54.2608C40.5605 50.4282 37.9449 50.3354 34.3904 50.3354C28.9196 50.3354 28.0117 51.6413 28.0117 56.776V63.2126C28.0117 68.3472 28.9196 69.6531 34.3904 69.6531C37.9449 69.6531 40.5643 69.5604 40.7382 65.7277M82.1011 50.3354L76.4488 65.4496C75.3979 68.2506 74.8763 69.6531 74.0457 69.6531C73.215 69.6531 72.6934 68.2506 71.6426 65.4496L65.9902 50.3354M57.842 50.3354H54.0867C52.5838 50.3354 51.8342 50.3354 51.2431 50.5789C49.2264 51.4134 49.2534 53.376 49.2534 55.1649C49.2534 56.9537 49.2264 58.9125 51.2431 59.7509C51.8342 59.9943 52.5838 59.9943 54.0867 59.9943C55.5857 59.9943 56.3391 59.9943 56.9302 60.2377C58.947 61.0722 58.92 63.0349 58.92 64.8237C58.92 66.6125 58.947 68.5713 56.9302 69.4097C56.3391 69.6531 55.5857 69.6531 54.0867 69.6531H49.9913" stroke="#6161FF" stroke-width="5" stroke-linecap="round" stroke-linejoin="round"/>
<path d="M58.919 85.107H42.4101C29.815 85.107 23.5097 85.107 19.1362 82.0239C17.8916 81.1511 16.7791 80.1036 15.8329 78.9138C12.5566 74.7952 12.5566 68.8686 12.5566 57.0076V47.1749C12.5566 35.7272 12.5566 30.0015 14.3686 25.4309C17.2817 18.0786 23.4402 12.2833 31.2523 9.54024C36.1049 7.83643 42.1822 7.83643 54.3523 7.83643C61.2989 7.83643 64.7761 7.83643 67.5501 8.81004C72.0125 10.3786 75.5322 13.6897 77.1973 17.8893C78.2366 20.5011 78.2366 23.7735 78.2366 30.3144V38.7447" stroke="#6161FF" stroke-width="5" stroke-linecap="round" stroke-linejoin="round"/>
<path d="M12.5566 46.4717C12.5566 43.0565 13.9133 39.7811 16.3283 37.3662C18.7432 34.9513 22.0186 33.5946 25.4338 33.5946C28.0069 33.5946 31.0398 34.0427 33.5395 33.3744C34.6317 33.0804 35.6275 32.5045 36.427 31.7043C37.2265 30.9042 37.8015 29.9079 38.0946 28.8154C38.763 26.3157 38.3148 23.2828 38.3148 20.7097C38.3158 17.2951 39.673 14.0208 42.0878 11.6067C44.5026 9.19259 47.7774 7.83643 51.1919 7.83643" stroke="#6161FF" stroke-width="5" stroke-linecap="round" stroke-linejoin="round"/>
</svg>
