<svg width="16" height="17" viewBox="0 0 16 17" fill="none" xmlns="http://www.w3.org/2000/svg">
<path d="M9.75 6.75C9.75 6.75 10.1875 7.625 10.1875 9.375C10.1875 11.125 9.75 12 9.75 12" stroke="#F43A3A" stroke-width="0.75" stroke-linecap="round" stroke-linejoin="round"/>
<path d="M6.25 6.75C6.25 6.75 5.8125 7.625 5.8125 9.375C5.8125 11.125 6.25 12 6.25 12" stroke="#F43A3A" stroke-width="0.75" stroke-linecap="round" stroke-linejoin="round"/>
<path d="M13.25 3.6875C13.25 8.81386 14.4478 15.9375 8.00002 15.9375C1.5522 15.9375 2.75001 8.81386 2.75001 3.6875" stroke="#F43A3A" stroke-width="0.75" stroke-linecap="round" stroke-linejoin="round"/>
<path d="M1 3.6875H15" stroke="#F43A3A" stroke-width="0.75" stroke-linecap="round" stroke-linejoin="round"/>
<path d="M10.625 3.6875V2.8125C10.625 1.25934 9.19236 1.0625 8 1.0625C6.80764 1.0625 5.375 1.25934 5.375 2.8125V3.6875" stroke="#F43A3A" stroke-width="0.75" stroke-linecap="round" stroke-linejoin="round"/>
</svg>
