<svg width="23" height="22" viewBox="0 0 23 22" fill="none" xmlns="http://www.w3.org/2000/svg">
<path fill-rule="evenodd" clip-rule="evenodd" d="M1.29883 15.6884C1.29883 12.0164 2.52319 10.792 6.19523 10.792C9.86727 10.792 11.0916 12.0164 11.0916 15.6884C11.0916 19.3604 9.86727 20.5848 6.19523 20.5848C2.52319 20.5848 1.29883 19.3604 1.29883 15.6884Z" stroke="#292D32" stroke-width="1.5" stroke-linecap="round" stroke-linejoin="round"/>
<path d="M7.89287 14.2662H4.98633" stroke="#292D32" stroke-linecap="round" stroke-linejoin="round"/>
<path fill-rule="evenodd" clip-rule="evenodd" d="M12.0059 15.846C12.0059 12.174 13.2302 10.9496 16.9023 10.9496C20.5743 10.9496 21.7986 12.174 21.7986 15.846C21.7986 19.518 20.5743 20.7424 16.9023 20.7424C13.2302 20.7424 12.0059 19.518 12.0059 15.846Z" stroke="#292D32" stroke-width="1.5" stroke-linecap="round" stroke-linejoin="round"/>
<path d="M18.4202 14.2662H15.5137" stroke="#292D32" stroke-linecap="round" stroke-linejoin="round"/>
<path d="M13.3211 3.73682H10.25" stroke="#292D32" stroke-linecap="round" stroke-linejoin="round"/>
<path fill-rule="evenodd" clip-rule="evenodd" d="M6.74023 5.66716C6.74023 1.99512 7.9646 0.770752 11.6366 0.770752C15.3087 0.770752 16.533 1.99512 16.533 5.66716C16.533 9.33919 15.3087 10.5635 11.6366 10.5635C7.9646 10.5635 6.74023 9.33919 6.74023 5.66716Z" stroke="#292D32" stroke-width="1.5" stroke-linecap="round" stroke-linejoin="round"/>
</svg>
