<svg width="42" height="41" viewBox="0 0 42 41" fill="none" xmlns="http://www.w3.org/2000/svg">
<path d="M27.8766 3.48584H13.8009C7.67953 3.48584 4.03027 7.1351 4.03027 13.2564V27.3322C4.03027 33.4535 7.67953 37.1028 13.8009 37.1028H27.8766C33.9979 37.1028 37.6472 33.4535 37.6472 27.3322V13.2564C37.6472 7.1351 33.9979 3.48584 27.8766 3.48584Z" fill="#1977F3"/>
<path d="M24.0595 15.7288L24.1436 20.6898L28.5664 20.6225C28.8859 20.6225 29.1213 20.9084 29.0709 21.2111L28.4823 24.4231C28.4318 24.6586 28.2301 24.8267 27.9946 24.8436L24.2108 24.9108L24.4126 37.1031L19.3676 37.1871L19.1658 24.9949L16.3069 25.0454C16.021 25.0454 15.8024 24.8267 15.8024 24.5408L15.752 21.3457C15.752 21.0598 15.9706 20.8411 16.2564 20.8411L19.1153 20.7907L19.0312 15.3252C18.9808 12.5336 21.2006 10.2465 23.9922 10.1961L28.5327 10.1288C28.8186 10.1288 29.0373 10.3474 29.0373 10.6333L29.1046 14.6693C29.1046 14.9552 28.8859 15.1738 28.6 15.1738L24.564 15.2411C24.2781 15.2243 24.0595 15.4597 24.0595 15.7288Z" fill="#ECECEC"/>
</svg>
