<svg width="24" height="23" viewBox="0 0 24 23" fill="none" xmlns="http://www.w3.org/2000/svg">
<path d="M3.1544 6.27783C2.50258 7.15417 2.08691 8.66923 2.08691 11.2558C2.08691 18.8363 4.41939 21.1688 12 21.1688C19.5805 21.1688 21.913 18.8363 21.913 11.2558C21.913 4.57402 19.3247 1.91921 13.5198 1.38359C12.1339 1.25571 9.63017 1.89209 9.50098 3.27783V3.27783M3.1544 6.27783C2.93659 4.11117 3.00098 1.77783 5.00098 1.77783C6.06027 1.77783 6.79229 1.77783 7.41989 1.77783C8.36413 1.77783 9.20238 2.38205 9.50098 3.27783V3.27783M3.1544 6.27783C5.39854 3.26066 8.98478 8.81452 9.50098 3.27783" stroke="#292D32" stroke-width="1.6" stroke-linecap="round" stroke-linejoin="round"/>
<circle cx="8.1" cy="11.8778" r="1.1" fill="#292D32"/>
<circle cx="12.6098" cy="11.8778" r="1.1" fill="#292D32"/>
<circle cx="16.9008" cy="11.8778" r="1.1" fill="#292D32"/>
</svg>
