<svg width="25" height="26" viewBox="0 0 25 26" fill="none" xmlns="http://www.w3.org/2000/svg">
<path d="M6.9939 3.6748C4.02263 3.6748 3.1084 4.58904 3.1084 7.5603C3.1084 10.5316 4.02263 11.4458 6.9939 11.4458C9.96516 11.4458 10.8794 10.5316 10.8794 7.5603C10.8794 4.58904 9.96516 3.6748 6.9939 3.6748Z" stroke="#292D32" stroke-width="1.6" stroke-linecap="round" stroke-linejoin="round"/>
<path d="M6.9939 14.5542C4.02263 14.5542 3.1084 15.4685 3.1084 18.4397C3.1084 21.4109 4.02263 22.3252 6.9939 22.3252C9.96516 22.3252 10.8794 21.4109 10.8794 18.4397C10.8794 15.4685 9.96516 14.5542 6.9939 14.5542Z" stroke="#292D32" stroke-width="1.6" stroke-linecap="round" stroke-linejoin="round"/>
<path d="M17.8738 14.5542C14.9026 14.5542 13.9883 15.4685 13.9883 18.4397C13.9883 21.4109 14.9026 22.3252 17.8738 22.3252C20.845 22.3252 21.7593 21.4109 21.7593 18.4397C21.7593 15.4685 20.845 14.5542 17.8738 14.5542Z" stroke="#292D32" stroke-width="1.6" stroke-linecap="round" stroke-linejoin="round"/>
<path d="M17.8738 3.6748C14.9026 3.6748 13.9883 4.58904 13.9883 7.5603C13.9883 10.5316 14.9026 11.4458 17.8738 11.4458C20.845 11.4458 21.7593 10.5316 21.7593 7.5603C21.7593 4.58904 20.845 3.6748 17.8738 3.6748Z" stroke="#292D32" stroke-width="1.6" stroke-linecap="round" stroke-linejoin="round"/>
</svg>
