<svg width="42" height="42" viewBox="0 0 42 42" fill="none" xmlns="http://www.w3.org/2000/svg">
<rect width="42" height="42" rx="12" fill="#E5E5FF"/>
<path d="M14.8887 23.7778C14.8887 23.7778 16.1109 23.7778 17.9442 23.7778C19.7776 23.7778 20.9998 23.7778 20.9998 23.7778" stroke="#6161FF" stroke-width="1.6" stroke-linecap="round" stroke-linejoin="round"/>
<path d="M31.8849 18.8887H10.1152" stroke="#6161FF" stroke-width="1.6" stroke-linecap="round" stroke-linejoin="round"/>
<path d="M21 14C16.1111 14 11.8333 14.4074 11.2222 14.8148C10.7714 15.1153 10.3207 16.7459 10.1152 18.8889C10.0421 19.6512 10 20.4783 10 21.3333C10 24.5926 10.6111 27.4444 11.2222 27.8518C11.8333 28.2593 16.1111 28.6667 21 28.6667C25.8889 28.6667 30.1667 28.2593 30.7778 27.8518C31.3889 27.4444 32 24.5926 32 21.3333C32 20.4783 31.958 19.6512 31.8849 18.8889C31.6793 16.7459 31.2285 15.1153 30.7778 14.8148C30.1667 14.4074 25.8889 14 21 14Z" stroke="#6161FF" stroke-width="1.6" stroke-linecap="round" stroke-linejoin="round"/>
</svg>
