<svg width="30" height="30" viewBox="0 0 30 30" fill="none" xmlns="http://www.w3.org/2000/svg">
<path opacity="0.4" d="M26.9883 10.4936V4.98497C26.9883 3.27413 26.2118 2.58252 24.2826 2.58252H19.3806C17.4514 2.58252 16.6748 3.27413 16.6748 4.98497V10.4815C16.6748 12.2044 17.4514 12.8839 19.3806 12.8839H24.2826C26.2118 12.8961 26.9883 12.2044 26.9883 10.4936Z" fill="#14B8A6"/>
<path d="M26.9883 24.1434V19.2414C26.9883 17.3122 26.2118 16.5356 24.2826 16.5356H19.3806C17.4514 16.5356 16.6748 17.3122 16.6748 19.2414V24.1434C16.6748 26.0726 17.4514 26.8492 19.3806 26.8492H24.2826C26.2118 26.8492 26.9883 26.0726 26.9883 24.1434Z" fill="#14B8A6" fill-opacity="0.88"/>
<path d="M13.0362 10.4936V4.98497C13.0362 3.27413 12.2597 2.58252 10.3304 2.58252H5.42844C3.49921 2.58252 2.72266 3.27413 2.72266 4.98497V10.4815C2.72266 12.2044 3.49921 12.8839 5.42844 12.8839H10.3304C12.2597 12.8961 13.0362 12.2044 13.0362 10.4936Z" fill="#14B8A6" fill-opacity="0.88"/>
<path d="M13.0362 24.1434V19.2414C13.0362 17.3122 12.2597 16.5356 10.3304 16.5356H5.42844C3.49921 16.5356 2.72266 17.3122 2.72266 19.2414V24.1434C2.72266 26.0726 3.49921 26.8492 5.42844 26.8492H10.3304C12.2597 26.8492 13.0362 26.0726 13.0362 24.1434Z" fill="#14B8A6" fill-opacity="0.88"/>
</svg>
