<svg width="22" height="22" viewBox="0 0 22 22" fill="none" xmlns="http://www.w3.org/2000/svg">
<path d="M4.90974 0.946289C3.17207 0.946289 1.65162 1.50482 1.43442 2.06336C1.2172 2.62189 1 6.53163 1 10.9999C1 15.4682 1.2172 19.3779 1.43442 19.9364C1.65162 20.495 3.17207 21.0535 4.90974 21.0535C6.6474 21.0535 8.16785 20.495 8.38506 19.9364C8.60227 19.3779 8.81947 15.4682 8.81947 10.9999C8.81947 6.53163 8.60227 2.62189 8.38506 2.06336C8.16785 1.50482 6.6474 0.946289 4.90974 0.946289Z" stroke="black" stroke-width="1.45455" stroke-linecap="round" stroke-linejoin="round"/>
<path d="M17.1698 0.947998C15.4675 0.947998 13.9781 1.30262 13.7654 1.65725C13.5526 2.01187 13.3398 4.49424 13.3398 7.33124C13.3398 10.1682 13.5526 12.6506 13.7654 13.0052C13.9781 13.3599 15.4675 13.7145 17.1698 13.7145C18.872 13.7145 20.3614 13.3599 20.5742 13.0052C20.787 12.6506 20.9997 10.1682 20.9997 7.33124C20.9997 4.49424 20.787 2.01187 20.5742 1.65725C20.3614 1.30262 18.872 0.947998 17.1698 0.947998Z" stroke="black" stroke-width="1.45455" stroke-linecap="round" stroke-linejoin="round"/>
</svg>
