<svg width="25" height="26" viewBox="0 0 25 26" fill="none" xmlns="http://www.w3.org/2000/svg">
<path opacity="0.4" d="M17.7085 21.6168H7.29183C4.16683 21.6168 2.0835 20.0543 2.0835 16.4084V9.11678C2.0835 5.47095 4.16683 3.90845 7.29183 3.90845H17.7085C20.8335 3.90845 22.9168 5.47095 22.9168 9.11678V16.4084C22.9168 20.0543 20.8335 21.6168 17.7085 21.6168Z" fill="#1E1E1E"/>
<path d="M12.4997 13.669C11.6247 13.669 10.7393 13.3982 10.0622 12.8461L6.80181 10.242C6.46848 9.97112 6.40598 9.48153 6.67682 9.1482C6.94765 8.81487 7.43723 8.75237 7.77057 9.02321L11.031 11.6274C11.8226 12.2628 13.1664 12.2628 13.9581 11.6274L17.2185 9.02321C17.5518 8.75237 18.0518 8.80445 18.3122 9.1482C18.5831 9.48153 18.531 9.98154 18.1872 10.242L14.9268 12.8461C14.2601 13.3982 13.3747 13.669 12.4997 13.669Z" fill="#1E1E1E"/>
</svg>
