<svg width="93" height="94" viewBox="0 0 93 94" fill="none" xmlns="http://www.w3.org/2000/svg">
<path d="M27.2949 70.147V60.4882M27.2949 60.4882V54.6929C27.2949 52.8732 27.2949 51.9614 27.8899 51.3934C28.4849 50.8293 29.4392 50.8293 31.3516 50.8293H34.0561C36.8572 50.8293 39.1289 52.9929 39.1289 55.6588C39.1289 58.3246 36.8572 60.4882 34.0561 60.4882H27.2949ZM81.3843 50.8293H76.3154C73.128 50.8293 71.5323 50.8293 70.5433 51.772C69.5542 52.7147 69.5542 54.2331 69.5542 57.2698V60.4882M69.5542 60.4882V70.147M69.5542 60.4882H78.0037M61.1008 60.4882C61.1008 65.8198 56.5612 70.147 50.959 70.147C49.6957 70.147 49.0659 70.147 48.5907 69.8881C47.4664 69.27 47.5785 68.0143 47.5785 66.9287V54.0477C47.5785 52.962 47.4625 51.7064 48.5907 51.0882C49.062 50.8293 49.6957 50.8293 50.959 50.8293C56.5612 50.8293 61.1008 55.1565 61.1008 60.4882Z" stroke="#6161FF" stroke-width="5" stroke-linecap="round" stroke-linejoin="round"/>
<path d="M58.2022 85.6009H41.6933C29.0982 85.6009 22.7929 85.6009 18.4194 82.5178C17.1748 81.645 16.0623 80.5975 15.1161 79.4077C11.8398 75.2891 11.8398 69.3625 11.8398 57.5015V47.6688C11.8398 36.2211 11.8398 30.4954 13.6518 25.9248C16.5649 18.5725 22.7234 12.7772 30.5355 10.0341C35.3881 8.33032 41.4654 8.33032 53.6355 8.33032C60.5821 8.33032 64.0593 8.33032 66.8333 9.30393C71.2957 10.8725 74.8154 14.1836 76.4806 18.3832C77.5198 20.995 77.5198 24.2674 77.5198 30.8083V39.2386" stroke="#6161FF" stroke-width="5" stroke-linecap="round" stroke-linejoin="round"/>
<path d="M11.8398 46.9656C11.8398 43.5504 13.1965 40.275 15.6115 37.8601C18.0264 35.4452 21.3018 34.0885 24.717 34.0885C27.2901 34.0885 30.323 34.5366 32.8227 33.8682C33.9149 33.5743 34.9107 32.9984 35.7102 32.1982C36.5097 31.3981 37.0847 30.4018 37.3778 29.3093C38.0462 26.8096 37.598 23.7767 37.598 21.2036C37.599 17.789 38.9562 14.5147 41.371 12.1006C43.7858 9.68649 47.0606 8.33032 50.4751 8.33032" stroke="#6161FF" stroke-width="5" stroke-linecap="round" stroke-linejoin="round"/>
</svg>
