<svg width="25" height="26" viewBox="0 0 25 26" fill="none" xmlns="http://www.w3.org/2000/svg">
<path opacity="0.4" d="M12.2814 15.6694L8.87516 19.0757C8.50016 18.7423 8.13558 18.3986 7.78141 18.0444C6.7085 16.9611 5.73975 15.8257 4.87516 14.6382C4.021 13.4507 3.3335 12.2632 2.8335 11.0861C2.3335 9.8986 2.0835 8.76318 2.0835 7.67985C2.0835 6.97152 2.2085 6.29443 2.4585 5.66943C2.7085 5.03402 3.10433 4.45068 3.65641 3.92985C4.32308 3.2736 5.05225 2.95068 5.82308 2.95068C6.11475 2.95068 6.40641 3.01318 6.66683 3.13818C6.93766 3.26318 7.17725 3.45068 7.36475 3.72152L9.78141 7.12777C9.96891 7.38818 10.1043 7.62777 10.1981 7.85693C10.2918 8.07568 10.3439 8.29443 10.3439 8.49235C10.3439 8.74235 10.271 8.99235 10.1252 9.23193C9.98975 9.47152 9.79183 9.72152 9.54183 9.97152L8.75016 10.7944C8.63558 10.909 8.58349 11.0444 8.58349 11.2111C8.58349 11.2944 8.59391 11.3673 8.61475 11.4507C8.646 11.534 8.67725 11.5965 8.69808 11.659C8.88558 12.0028 9.20849 12.4507 9.66683 12.9924C10.1356 13.534 10.6356 14.0861 11.1772 14.6382C11.5522 15.0028 11.9168 15.3569 12.2814 15.6694Z" fill="#1E1E1E"/>
<path d="M22.8854 19.9613C22.8854 20.253 22.8333 20.5551 22.7292 20.8467C22.6979 20.9301 22.6667 21.0134 22.625 21.0967C22.4479 21.4717 22.2187 21.8259 21.9167 22.1592C21.4062 22.7217 20.8437 23.128 20.2083 23.3884C20.1979 23.3884 20.1875 23.3988 20.1771 23.3988C19.5625 23.6488 18.8958 23.7842 18.1771 23.7842C17.1146 23.7842 15.9792 23.5342 14.7812 23.0238C13.5833 22.5134 12.3854 21.8259 11.1979 20.9613C10.7917 20.6592 10.3854 20.3571 10 20.0342L13.4062 16.628C13.6979 16.8467 13.9583 17.0134 14.1771 17.128C14.2292 17.1488 14.2917 17.1801 14.3646 17.2113C14.4479 17.2426 14.5312 17.253 14.625 17.253C14.8021 17.253 14.9375 17.1905 15.0521 17.0759L15.8437 16.2946C16.1042 16.0342 16.3542 15.8363 16.5937 15.7113C16.8333 15.5655 17.0729 15.4926 17.3333 15.4926C17.5312 15.4926 17.7396 15.5342 17.9687 15.628C18.1979 15.7217 18.4375 15.8571 18.6979 16.0342L22.1458 18.4821C22.4167 18.6696 22.6042 18.8884 22.7187 19.1488C22.8229 19.4092 22.8854 19.6696 22.8854 19.9613Z" fill="#1E1E1E"/>
</svg>
