<svg width="30" height="31" viewBox="0 0 30 31" fill="none" xmlns="http://www.w3.org/2000/svg">
<path opacity="0.4" d="M21.4395 10.3463C21.3545 10.3342 21.2696 10.3342 21.1847 10.3463C19.304 10.2856 17.8115 8.74466 17.8115 6.85182C17.8115 4.92258 19.3768 3.34521 21.3181 3.34521C23.2474 3.34521 24.8247 4.91045 24.8247 6.85182C24.8126 8.74466 23.3202 10.2856 21.4395 10.3463Z" fill="#6AA2F3"/>
<path opacity="0.4" d="M25.3935 18.7538C24.0346 19.6639 22.1296 20.0036 20.3702 19.7731C20.8313 18.7781 21.074 17.674 21.0861 16.5091C21.0861 15.2958 20.8192 14.1431 20.3096 13.136C22.1053 12.8933 24.0103 13.2331 25.3814 14.1431C27.2985 15.405 27.2985 17.4798 25.3935 18.7538Z" fill="#6AA2F3"/>
<path opacity="0.4" d="M7.9839 10.3463C8.06883 10.3342 8.15377 10.3342 8.23871 10.3463C10.1194 10.2856 11.6118 8.74466 11.6118 6.85182C11.6118 4.92258 10.0466 3.34521 8.10524 3.34521C6.176 3.34521 4.59863 4.91045 4.59863 6.85182C4.61077 8.74466 6.10319 10.2856 7.9839 10.3463Z" fill="#6AA2F3"/>
<path opacity="0.4" d="M8.11669 16.5094C8.11669 17.6863 8.37149 18.8026 8.83257 19.8097C7.12173 19.9917 5.3381 19.6277 4.02767 18.7662C2.11057 17.4922 2.11057 15.4173 4.02767 14.1433C5.32597 13.2697 7.15814 12.9178 8.88111 13.112C8.38363 14.1312 8.11669 15.2839 8.11669 16.5094Z" fill="#6AA2F3"/>
<path d="M14.8766 20.1737C14.7795 20.1615 14.6703 20.1615 14.5611 20.1737C12.3286 20.1009 10.5449 18.2687 10.5449 16.0118C10.5449 13.7065 12.4014 11.8379 14.7189 11.8379C17.0243 11.8379 18.8928 13.7065 18.8928 16.0118C18.8928 18.2687 17.1213 20.1009 14.8766 20.1737Z" fill="#6AA2F3"/>
<path d="M10.9308 22.6862C9.0986 23.9117 9.0986 25.9258 10.9308 27.1392C13.0177 28.5346 16.4394 28.5346 18.5264 27.1392C20.3586 25.9137 20.3586 23.8995 18.5264 22.6862C16.4515 21.2908 13.0299 21.2908 10.9308 22.6862Z" fill="#6AA2F3"/>
</svg>
