<svg width="18" height="15" viewBox="0 0 18 15" fill="none" xmlns="http://www.w3.org/2000/svg">
<path d="M3.92773 13.5067V7.20508" stroke="black" stroke-linecap="round" stroke-linejoin="round"/>
<path d="M3.92816 6.15467C3.11322 6.15467 2.62485 5.92872 2.33921 5.64308C2.05357 5.35744 1.82761 4.86907 1.82761 4.05413C1.82761 3.23919 2.05357 2.75083 2.33921 2.46519C2.62485 2.17954 3.11322 1.95359 3.92816 1.95359C4.74309 1.95359 5.23146 2.17954 5.5171 2.46519C5.80275 2.75083 6.0287 3.23919 6.0287 4.05413C6.0287 4.86907 5.80275 5.35744 5.5171 5.64308C5.23146 5.92872 4.74309 6.15467 3.92816 6.15467Z" fill="black" stroke="#F3F4F8" stroke-width="2.10054"/>
<path d="M0.777344 4.05413C0.777344 6.07065 1.91164 7.20495 3.92816 7.20495C5.94468 7.20495 7.07897 6.07065 7.07897 4.05413C7.07897 2.03761 5.94468 0.90332 3.92816 0.90332C1.91164 0.90332 0.777344 2.03761 0.777344 4.05413Z" stroke="black" stroke-linecap="round" stroke-linejoin="round"/>
<path d="M13.8945 1.20521L13.8945 7.50684" stroke="black" stroke-linecap="round" stroke-linejoin="round"/>
<path d="M13.8941 8.55724C14.709 8.55724 15.1974 8.78319 15.4831 9.06883C15.7687 9.35448 15.9947 9.84284 15.9947 10.6578C15.9947 11.4727 15.7687 11.9611 15.4831 12.2467C15.1974 12.5324 14.709 12.7583 13.8941 12.7583C13.0792 12.7583 12.5908 12.5324 12.3052 12.2467C12.0195 11.9611 11.7936 11.4727 11.7936 10.6578C11.7936 9.84284 12.0195 9.35448 12.3052 9.06883C12.5908 8.78319 13.0792 8.55724 13.8941 8.55724Z" fill="black" stroke="#F3F4F8" stroke-width="2.10054"/>
<path d="M17.0449 10.6578C17.0449 8.64126 15.9106 7.50697 13.8941 7.50697C11.8776 7.50697 10.7433 8.64126 10.7433 10.6578C10.7433 12.6743 11.8776 13.8086 13.8941 13.8086C15.9106 13.8086 17.0449 12.6743 17.0449 10.6578Z" stroke="black" stroke-linecap="round" stroke-linejoin="round"/>
</svg>
