<svg width="55" height="56" viewBox="0 0 55 56" fill="none" xmlns="http://www.w3.org/2000/svg">
<rect width="55" height="55" transform="translate(0 0.471588)" fill="#F8F8FC"/>
<path d="M20.9067 17.4719H22.8446C22.8446 17.4719 25.7513 17.4719 25.7513 20.3786C25.7513 23.2853 25.7513 23.2853 22.8446 23.2853H20.9067C20.9067 23.2853 18 23.2853 18 20.3786C18 17.4719 18 17.4719 20.9067 17.4719Z" fill="#6161FF" fill-opacity="0.1"/>
<path d="M33.5024 17.4719H35.4403C35.4403 17.4719 38.347 17.4719 38.347 20.3786C38.347 23.2854 38.347 23.2854 35.4403 23.2854H33.5024C33.5024 23.2854 30.5957 23.2854 30.5957 20.3786C30.5957 17.4719 30.5957 17.4719 33.5024 17.4719Z" fill="#6161FF" fill-opacity="0.1"/>
<path d="M20.907 27.6454H22.8448C22.8448 27.6454 25.7516 27.6454 25.7516 30.5522C25.7516 33.4589 25.7516 33.4589 22.8448 33.4589H20.907C20.907 33.4589 18.0002 33.4589 18.0002 30.5522C18.0002 27.6454 18.0002 27.6454 20.907 27.6454Z" fill="#6161FF" fill-opacity="0.1"/>
<path d="M20.9067 17.4719H22.8446C22.8446 17.4719 25.7513 17.4719 25.7513 20.3786C25.7513 20.3786 25.7513 23.2853 22.8446 23.2853H20.9067C20.9067 23.2853 18 23.2853 18 20.3786C18 20.3786 18 17.4719 20.9067 17.4719Z" stroke="#6161FF" stroke-width="2" stroke-linecap="round" stroke-linejoin="round"/>
<path d="M42.2227 36.2436C42.2227 38.4837 41.6414 39.9642 40.7267 41.4718H29.5261L27.8867 39.8324C27.4651 39.4112 27.1463 38.8984 26.9552 38.3339C26.7641 37.7694 26.7057 37.1684 26.7846 36.5777C26.8636 35.9869 27.0777 35.4223 27.4103 34.9278C27.7429 34.4333 28.1851 34.0222 28.7025 33.7263L29.5261 33.2574V25.415C29.5446 24.7343 29.8281 24.0876 30.3161 23.6127C30.8041 23.1378 31.4582 22.872 32.1392 22.872C32.8202 22.872 33.4743 23.1378 33.9624 23.6127C34.4504 24.0876 34.7339 24.7343 34.7524 25.415V30.31C37.8859 30.6355 42.2208 31.7633 42.2208 36.2436H42.2227Z" fill="#6161FF" fill-opacity="0.1"/>
<path d="M40.7265 41.4717C41.6411 39.9641 42.2206 38.4836 42.2206 36.2434C42.2206 31.7632 37.8856 30.6354 34.7522 30.3098V25.4149C34.7522 23.9712 33.5817 22.8007 32.14 22.8007C31.4465 22.8007 30.7814 23.0761 30.2908 23.5663C29.8003 24.0565 29.5244 24.7214 29.5239 25.4149V33.2572L28.7042 33.7262C28.187 34.0219 27.745 34.4328 27.4124 34.9271C27.0798 35.4214 26.8656 35.9857 26.7865 36.5761C26.7074 37.1666 26.7655 37.7674 26.9563 38.3318C27.147 38.8961 27.4653 39.409 27.8864 39.8304L29.5258 41.4717" stroke="#6161FF" stroke-width="2" stroke-linecap="round" stroke-linejoin="round"/>
<path d="M37.9593 21.832C38.2145 21.39 38.3488 20.8886 38.3487 20.3782C38.3487 19.8678 38.2142 19.3664 37.9588 18.9245C37.7035 18.4825 37.3363 18.1156 36.8942 17.8606C36.452 17.6056 35.9505 17.4716 35.4401 17.4719H33.5023C32.6826 17.4719 31.9424 17.811 31.4133 18.3575" stroke="#6161FF" stroke-width="2" stroke-linecap="round" stroke-linejoin="round"/>
<path d="M25.7516 30.5522C25.7516 29.7812 25.4453 29.0419 24.9002 28.4968C24.3551 27.9517 23.6157 27.6454 22.8448 27.6454H20.907C20.1361 27.6454 19.3967 27.9517 18.8516 28.4968C18.3065 29.0419 18.0002 29.7812 18.0002 30.5522C18.0002 31.3231 18.3065 32.0624 18.8516 32.6075C19.3967 33.1527 20.1361 33.4589 20.907 33.4589H22.8448" stroke="#6161FF" stroke-width="2" stroke-linecap="round" stroke-linejoin="round"/>
</svg>
