<svg width="59" height="60" viewBox="0 0 59 60" fill="none" xmlns="http://www.w3.org/2000/svg">
<rect width="59" height="59" transform="translate(0 0.471619)" fill="#F8F8FC"/>
<path d="M18.6224 36.2114C18.7684 37.5051 19.3484 38.7111 20.2678 39.6328C21.1872 40.5546 22.3918 41.1376 23.685 41.287C25.6527 41.5076 27.6701 41.6952 29.7297 41.6952C31.7893 41.6952 33.8085 41.5076 35.7744 41.287C37.0677 41.1376 38.2722 40.5546 39.1916 39.6328C40.111 38.7111 40.691 37.5051 40.837 36.2114C41.0467 34.2566 41.2232 32.2485 41.2232 30.2017C41.2232 28.1549 41.0467 26.1468 40.837 24.1901C40.691 22.8965 40.111 21.6905 39.1916 20.7687C38.2722 19.847 37.0677 19.2639 35.7744 19.1146C33.8067 18.8976 31.7893 18.7082 29.7297 18.7082C27.6701 18.7082 25.6509 18.8958 23.685 19.1164C22.3918 19.2658 21.1872 19.8488 20.2678 20.7706C19.3484 21.6923 18.7684 22.8983 18.6224 24.192C18.4127 26.1449 18.2362 28.1531 18.2362 30.2017C18.2362 32.2503 18.4127 34.2566 18.6224 36.2114Z" fill="#D7E0FF"/>
<path d="M18.6224 36.2114C18.7684 37.5051 19.3484 38.7111 20.2678 39.6328C21.1872 40.5546 22.3918 41.1376 23.685 41.287C25.6527 41.5076 27.6701 41.6952 29.7297 41.6952C31.7893 41.6952 33.8085 41.5076 35.7744 41.287C37.0677 41.1376 38.2722 40.5546 39.1916 39.6328C40.111 38.7111 40.691 37.5051 40.837 36.2114C41.0467 34.2566 41.2232 32.2485 41.2232 30.2017C41.2232 28.1549 41.0467 26.1468 40.837 24.1901C40.691 22.8965 40.111 21.6905 39.1916 20.7687C38.2722 19.847 37.0677 19.2639 35.7744 19.1146C33.8067 18.8976 31.7893 18.7082 29.7297 18.7082C27.6701 18.7082 25.6509 18.8958 23.685 19.1164C22.3918 19.2658 21.1872 19.8488 20.2678 20.7706C19.3484 21.6923 18.7684 22.8983 18.6224 24.192C18.4127 26.1449 18.2362 28.1531 18.2362 30.2017C18.2362 32.2503 18.4127 34.2566 18.6224 36.2114Z" stroke="#6161FF" stroke-width="2.14545" stroke-linecap="round" stroke-linejoin="round"/>
<path d="M25.1322 31.3513L28.4754 34.7993C30.0496 30.2792 31.3589 28.2968 34.327 25.6045" stroke="#6161FF" stroke-width="2.14545" stroke-linecap="round" stroke-linejoin="round"/>
</svg>
