<svg width="55" height="56" viewBox="0 0 55 56" fill="none" xmlns="http://www.w3.org/2000/svg">
<rect width="55" height="55" transform="translate(0 0.471588)" fill="#F8F8FC"/>
<path d="M35.582 20.8768L38.6295 18.9904L41.677 17.1039L41.8095 30.9203L41.094 31.744C40.67 32.2222 39.9015 33.0459 39.3715 33.6039C38.815 34.1884 38.232 34.6401 38.0995 34.6401C37.967 34.6401 37.1985 34.0024 36.4035 33.2319C35.635 32.4879 34.4955 31.2126 33.886 30.442C33.303 29.6981 32.7995 28.9807 32.7995 28.8478C32.7995 28.7416 33.25 28.5821 33.78 28.4759C34.3365 28.3696 35.211 27.9976 35.7145 27.6788C36.3328 27.2536 36.642 26.8374 36.642 26.43C36.642 26.0846 36.43 25.6594 36.1915 25.5C35.847 25.2875 35.5025 25.314 34.734 25.7126C34.0185 26.0846 33.1705 26.244 31.7395 26.244C29.7785 26.2705 29.7255 26.2971 28.162 27.5193C26.996 28.4493 26.3335 28.7947 25.724 28.7947C25.141 28.7947 24.611 28.5556 24.187 28.1304C23.763 27.7053 23.5245 27.1739 23.5245 26.5894C23.5245 25.872 23.869 25.4203 25.777 23.5338C27.526 21.8599 28.321 21.2754 29.275 20.9831C30.1495 20.7174 31.342 20.6377 35.582 20.8768Z" fill="#6161FF" fill-opacity="0.1"/>
<path d="M13.1895 30.9203V24.2778V17.6353L15.389 18.7512C17.456 19.814 17.668 19.8406 20.212 19.9203C21.6695 19.9469 23.4185 20.1329 25.3795 20.6909L23.551 22.5508C22.385 23.7464 21.6165 24.7826 21.4045 25.4734C21.113 26.3503 21.113 26.7754 21.4045 27.7319C21.59 28.4493 22.12 29.3261 22.703 29.9106C23.2595 30.4686 24.0545 30.9469 24.5845 31.0531C25.088 31.1594 25.9625 31.186 26.4925 31.0797C27.049 31 28.0295 30.4952 28.692 29.9903L28.7868 29.9181C29.4068 29.4456 29.9122 29.0604 29.9375 29.0604C29.9905 29.0604 30.812 30.0966 31.766 31.372C32.7465 32.6739 34.151 34.2681 36.2445 36.2343L35.5025 36.7391C35.105 37.0048 34.1775 37.5362 33.462 37.9082C32.72 38.2802 31.3685 38.8381 30.4145 39.1304C29.4605 39.4492 27.9765 39.8212 27.102 39.9541C25.83 40.1666 25.2205 40.1401 24.0545 39.7947C23.2595 39.5555 21.9345 38.9444 21.1395 38.413C20.3445 37.8816 18.2245 35.9952 13.1895 30.9203Z" fill="#6161FF" fill-opacity="0.1"/>
<path d="M35.0518 18.406L38.2318 16.4398C39.9808 15.377 41.6238 14.4736 41.8888 14.4736C42.1273 14.447 42.5248 14.7127 42.7368 15.0581C43.0018 15.4036 43.0548 15.8287 42.9488 16.1475C42.8163 16.4132 42.3923 16.8118 41.9418 17.0509C41.5178 17.2634 39.9013 18.22 35.5818 20.877L33.0643 20.7441C31.3153 20.6378 30.1758 20.7175 29.3013 20.9832C28.3208 21.2755 27.5258 21.8601 25.7768 23.5605C23.8688 25.4204 23.5243 25.8721 23.5243 26.6161C23.5243 27.174 23.7628 27.7054 24.1868 28.1306C24.6108 28.5557 25.1408 28.7948 25.7238 28.7948C26.3333 28.7948 26.9958 28.4494 28.1618 27.5195C29.7253 26.2972 29.7783 26.2707 31.7393 26.2441C33.1703 26.2441 34.0183 26.0847 34.7338 25.7127C35.5023 25.3141 35.8468 25.2876 36.1913 25.5001C36.4298 25.6596 36.6418 26.0847 36.6418 26.4301C36.6418 26.8375 36.3326 27.2538 35.7143 27.6789C35.2108 27.9977 34.3363 28.3697 33.7798 28.476C33.2498 28.5823 32.7993 28.7417 32.7993 28.8745C32.7993 28.9808 33.3028 29.6982 33.9123 30.4687C34.5218 31.2127 35.3963 32.2489 35.8203 32.7272C36.2708 33.232 36.9598 33.8431 37.3838 34.1354C38.0993 34.6402 38.0993 34.6402 38.9738 34.0291C39.4243 33.6837 40.0868 32.9663 40.4313 32.4349C40.7493 31.9035 41.2263 31.3987 41.4913 31.319C41.7298 31.2392 42.1273 31.2392 42.3393 31.2924C42.5513 31.3721 42.8163 31.6112 42.9488 31.8504C43.0548 32.0629 42.9488 32.6209 42.7368 33.1257C42.5248 33.5774 41.8358 34.4808 41.2263 35.1185C40.5903 35.7561 40.0073 36.261 39.9013 36.2344C39.7688 36.2344 39.0003 36.8455 38.1788 37.5629C37.3308 38.3069 35.7408 39.3697 34.6543 39.9276C33.5678 40.5122 31.6598 41.2827 30.4143 41.6547C28.8508 42.1329 27.4993 42.3721 26.0418 42.3721C24.5843 42.3986 23.5508 42.2658 22.7293 41.9469C22.0668 41.6812 20.7683 40.9639 19.8143 40.3527C18.8603 39.7151 16.8463 37.988 15.3358 36.4735C13.8253 34.959 12.4208 33.4446 12.2353 33.1257C11.9173 32.5943 11.9173 32.4083 12.2618 31.8504C12.4738 31.4784 12.8448 31.1861 13.0568 31.1861C13.2688 31.1861 14.8588 32.5943 16.5813 34.3214C18.2773 36.0484 20.3443 37.8817 21.1393 38.4131C21.9343 38.9445 23.2593 39.5556 24.0543 39.7948C25.2203 40.1402 25.8298 40.1668 27.1018 39.9542C27.9763 39.8213 29.4603 39.4494 30.4143 39.1305C31.3683 38.8117 32.7463 38.2803 33.4618 37.9083C34.2038 37.5363 35.1048 37.0049 36.2443 36.2344L34.8928 34.9856C34.1508 34.2682 32.7463 32.6475 31.7658 31.3721C30.8118 30.0967 29.9903 29.0605 29.9638 29.0605C29.9121 29.0605 29.3819 29.4645 28.7415 29.9526L28.6918 29.9905C28.0293 30.4953 27.0488 31.0001 26.5188 31.0798C25.9623 31.1595 25.0878 31.1595 24.5843 31.0533C24.0543 30.947 23.2593 30.4687 22.7028 29.8842C22.1198 29.3262 21.5898 28.4228 21.4043 27.732C21.1128 26.7489 21.1128 26.3504 21.4043 25.4736C21.6163 24.7827 22.3848 23.7465 25.3793 20.691L24.1073 20.319C23.4183 20.133 21.6693 19.947 20.2118 19.8939C17.6413 19.8407 17.5088 19.8142 14.9383 18.5388C13.5073 17.8214 12.2353 17.0243 12.1028 16.7586C11.9703 16.4929 11.9703 16.0944 12.1293 15.7755C12.2883 15.4301 12.6593 15.2441 13.1363 15.2441C13.5338 15.2441 14.7528 15.749 15.8393 16.3601C17.7738 17.4229 17.9063 17.4494 20.6093 17.5026C22.7823 17.5557 23.8423 17.7151 25.4588 18.2731C27.2343 18.8842 27.6318 18.9374 28.6123 18.6717C29.2483 18.5122 30.9443 18.3794 35.0518 18.406Z" fill="#6161FF"/>
</svg>
