<svg width="26" height="23" viewBox="0 0 26 23" fill="none" xmlns="http://www.w3.org/2000/svg">
<path d="M9.17027 9.25127C9.42342 9.25935 9.67562 9.21648 9.91187 9.12519C10.1481 9.0339 10.3636 8.89605 10.5456 8.71984C10.7275 8.54362 10.8721 8.33264 10.9709 8.09942C11.0697 7.8662 11.1206 7.61551 11.1206 7.36223C11.1206 7.10895 11.0697 6.85825 10.9709 6.62504C10.8721 6.39182 10.7275 6.18083 10.5456 6.00462C10.3636 5.82841 10.1481 5.69056 9.91187 5.59927C9.67562 5.50798 9.42342 5.4651 9.17027 5.47319C8.66901 5.47319 8.18829 5.67232 7.83384 6.02676C7.4794 6.38121 7.28027 6.86193 7.28027 7.36319C7.28027 7.86445 7.4794 8.34518 7.83384 8.69963C8.18829 9.05407 8.66901 9.25127 9.17027 9.25127Z" stroke="#434461" stroke-width="1.79" stroke-linecap="round" stroke-linejoin="round"/>
<path d="M16.8844 17.0061C17.3856 17.0061 17.8664 16.807 18.2208 16.4525C18.5753 16.0981 18.7744 15.6173 18.7744 15.1161C18.7744 14.6148 18.5753 14.1341 18.2208 13.7796C17.8664 13.4252 17.3856 13.2261 16.8844 13.2261C16.3831 13.2261 15.9024 13.4252 15.548 13.7796C15.1935 14.1341 14.9944 14.6148 14.9944 15.1161C14.9944 15.6173 15.1935 16.0981 15.548 16.4525C15.9024 16.807 16.3831 17.0061 16.8844 17.0061Z" stroke="#434461" stroke-width="1.79" stroke-linecap="round" stroke-linejoin="round"/>
<path d="M25.0422 5.82818V8.07111C24.3504 8.36945 23.7611 8.86384 23.3471 9.49326C22.9331 10.1227 22.7125 10.8596 22.7125 11.6129C22.7125 12.3663 22.9331 13.1032 23.3471 13.7326C23.7611 14.362 24.3504 14.8564 25.0422 15.1548V17.3996C25.0422 19.5288 23.5128 20.954 21.1851 21.2568C14.7841 22.086 11.2047 22.0918 4.7922 21.2568C2.52999 20.9617 0.935059 19.5288 0.935059 17.3996V15.1548C1.62684 14.8564 2.21612 14.362 2.63013 13.7326C3.04414 13.1032 3.26477 12.3663 3.26477 11.6129C3.26477 10.8596 3.04414 10.1227 2.63013 9.49326C2.21612 8.86384 1.62684 8.36945 0.935059 8.07111V5.82818C0.935059 3.69711 2.54542 2.35097 4.7922 1.97104C11.1276 0.894896 14.7571 1.0569 21.1851 1.97104C23.3103 2.2719 25.0422 3.69711 25.0422 5.82818Z" stroke="#434461" stroke-width="1.79" stroke-linecap="round" stroke-linejoin="round"/>
<path d="M8.5647 15.6427C12.4701 12.4297 14.4218 10.4992 17.413 6.79633" stroke="#434461" stroke-width="1.79" stroke-linecap="round" stroke-linejoin="round"/>
</svg>
