<svg width="56" height="56" viewBox="0 0 56 56" fill="none" xmlns="http://www.w3.org/2000/svg">
<rect width="55" height="55" transform="translate(0.30835 0.423828)" fill="#F8F8FC"/>
<path d="M17.6685 33.7409C17.8046 34.9468 18.3453 36.0711 19.2024 36.9303C20.0594 37.7896 21.1823 38.3331 22.3879 38.4723C24.2222 38.678 26.1028 38.8529 28.0228 38.8529C29.9428 38.8529 31.825 38.678 33.6576 38.4723C34.8632 38.3331 35.9861 37.7896 36.8432 36.9303C37.7002 36.0711 38.2409 34.9468 38.377 33.7409C38.5725 31.9186 38.737 30.0466 38.737 28.1386C38.737 26.2306 38.5725 24.3586 38.377 22.5346C38.2409 21.3286 37.7002 20.2044 36.8432 19.3451C35.9861 18.4859 34.8632 17.9424 33.6576 17.8032C31.8233 17.6009 29.9428 17.4243 28.0228 17.4243C26.1028 17.4243 24.2205 17.5992 22.3879 17.8049C21.1823 17.9441 20.0594 18.4876 19.2024 19.3469C18.3453 20.2061 17.8046 21.3304 17.6685 22.5363C17.473 24.3569 17.3085 26.2289 17.3085 28.1386C17.3085 30.0483 17.473 31.9186 17.6685 33.7409Z" fill="#6161FF" fill-opacity="0.1" stroke="#6161FF" stroke-width="2" stroke-linecap="round" stroke-linejoin="round"/>
<path d="M23.7368 29.2107L26.8534 32.4249C28.3208 28.2112 29.5414 26.3632 32.3082 23.8535" stroke="#6161FF" stroke-width="2" stroke-linecap="round" stroke-linejoin="round"/>
</svg>
