<svg width="25" height="26" viewBox="0 0 25 26" fill="none" xmlns="http://www.w3.org/2000/svg">
<path d="M18.6803 18.5196C18.3378 17.1395 17.5432 15.9138 16.4231 15.0377C15.303 14.1616 13.9219 13.6857 12.4999 13.6857C11.0779 13.6857 9.69687 14.1616 8.5768 15.0377C7.45672 15.9138 6.66211 17.1395 6.31958 18.5196" stroke="#434461" stroke-width="1.79" stroke-linecap="round" stroke-linejoin="round"/>
<path d="M17.8694 2.23206C18.5301 2.30348 19.1872 2.37848 19.8372 2.45527C20.6724 2.55312 21.45 2.93012 22.0441 3.52519C22.6382 4.12027 23.014 4.89852 23.1105 5.73384C23.1819 6.37848 23.2551 7.03027 23.3247 7.6892" stroke="#434461" stroke-width="1.79" stroke-linecap="round" stroke-linejoin="round"/>
<path d="M17.8694 23.8644C18.5301 23.7929 19.1872 23.7179 19.8372 23.6412C20.6723 23.543 21.4498 23.1659 22.0438 22.5709C22.6378 21.9759 23.0137 21.1978 23.1105 20.3626C23.1819 19.7179 23.2551 19.0662 23.3247 18.4072" stroke="#434461" stroke-width="1.79" stroke-linecap="round" stroke-linejoin="round"/>
<path d="M7.13041 2.23206C6.46969 2.30348 5.81255 2.37848 5.16255 2.45527C4.32751 2.55342 3.55004 2.93053 2.956 3.52554C2.36196 4.12055 1.98612 4.89864 1.88933 5.73384C1.81791 6.37848 1.74469 7.03027 1.67505 7.6892" stroke="#434461" stroke-width="1.79" stroke-linecap="round" stroke-linejoin="round"/>
<path d="M7.13041 23.8644C6.46969 23.7929 5.81255 23.7179 5.16255 23.6412C4.32751 23.543 3.55004 23.1659 2.956 22.5709C2.36196 21.9759 1.98612 21.1978 1.88933 20.3626C1.81791 19.7179 1.74469 19.0662 1.67505 18.4072" stroke="#434461" stroke-width="1.79" stroke-linecap="round" stroke-linejoin="round"/>
<path d="M12.5001 13.6853C14.9215 13.6853 16.2858 12.3228 16.2858 9.89954C16.2858 7.47812 14.9215 6.11383 12.5001 6.11383C10.0769 6.11383 8.71436 7.47812 8.71436 9.89954C8.71436 12.3228 10.0769 13.6853 12.5001 13.6853Z" stroke="#434461" stroke-width="1.79" stroke-linecap="round" stroke-linejoin="round"/>
</svg>
