<svg width="27" height="26" viewBox="0 0 27 26" fill="none" xmlns="http://www.w3.org/2000/svg">
<path d="M2.57971 18.574C2.72193 19.8339 3.28678 21.0084 4.18215 21.9061C5.07753 22.8037 6.25061 23.3715 7.5101 23.517C9.42638 23.7319 11.391 23.9145 13.3968 23.9145C15.4027 23.9145 17.3691 23.7319 19.2836 23.517C20.5431 23.3715 21.7162 22.8037 22.6115 21.9061C23.5069 21.0084 24.0718 19.8339 24.214 18.574C24.4182 16.6703 24.5901 14.7146 24.5901 12.7213C24.5901 10.728 24.4182 8.77234 24.214 6.8668C24.0718 5.60694 23.5069 4.43243 22.6115 3.53477C21.7162 2.63712 20.5431 2.06929 19.2836 1.92387C17.3673 1.71254 15.4027 1.52808 13.3968 1.52808C11.391 1.52808 9.42459 1.71075 7.5101 1.92566C6.25061 2.07108 5.07753 2.63891 4.18215 3.53656C3.28678 4.43422 2.72193 5.60873 2.57971 6.86859C2.37554 8.77055 2.20361 10.7262 2.20361 12.7213C2.20361 14.7164 2.37554 16.6703 2.57971 18.574Z" stroke="#434461" stroke-width="1.72" stroke-linecap="round" stroke-linejoin="round"/>
<path d="M13.3969 18.0941V7.34857" stroke="#434461" stroke-width="1.72" stroke-linecap="round" stroke-linejoin="round"/>
<path d="M9.81519 10.9304C9.81519 9.58722 11.6061 7.7963 13.397 7.34857C15.1879 7.7963 16.9789 9.58722 16.9789 10.9304" stroke="#434461" stroke-width="1.72" stroke-linecap="round" stroke-linejoin="round"/>
</svg>
