<svg width="26" height="26" viewBox="0 0 26 26" fill="none" xmlns="http://www.w3.org/2000/svg">
<g clip-path="url(#clip0_2217_29625)">
<path d="M24.6182 24.5446L21.4432 21.3696" stroke="#434461" stroke-width="1.71739" stroke-linecap="round" stroke-linejoin="round"/>
<path d="M7.48073 10.8231C7.06465 10.8535 6.64144 10.8731 6.21644 10.8731C5.37001 10.8731 4.53965 10.7964 3.73073 10.7053C3.19935 10.6437 2.70447 10.4041 2.32671 10.0253C1.94895 9.64659 1.71055 9.1511 1.65037 8.61957C1.56465 7.816 1.49323 6.991 1.49323 6.14814C1.49323 5.30886 1.56644 4.48207 1.65394 3.6785C1.76823 2.58921 2.64501 1.71421 3.73251 1.59278C4.54144 1.5035 5.3718 1.42493 6.21823 1.42493C7.06465 1.42493 7.89501 1.50171 8.70215 1.59278C9.79144 1.71421 10.6664 2.58921 10.7825 3.6785C10.87 4.48207 10.9432 5.30707 10.9432 6.14814C10.9432 6.54814 10.9254 6.94457 10.8986 7.33743" stroke="#434461" stroke-width="1.71739" stroke-linecap="round" stroke-linejoin="round"/>
<path d="M6.21638 15.0018C5.36995 15.0018 4.53959 15.0786 3.73066 15.1679C2.64138 15.2893 1.76638 16.1661 1.65031 17.2554C1.56459 18.059 1.49316 18.884 1.49316 19.7233C1.49316 20.5625 1.56638 21.3893 1.65388 22.1929C1.76816 23.2822 2.64495 24.1572 3.73245 24.2804C4.54138 24.3697 5.37174 24.4483 6.21816 24.4483C7.06459 24.4483 7.89495 24.3697 8.70209 24.2804" stroke="#434461" stroke-width="1.71739" stroke-linecap="round" stroke-linejoin="round"/>
<path d="M14.6735 6.14826C14.6735 5.30719 14.7449 4.48219 14.8324 3.67862C14.9485 2.58933 15.8252 1.71433 16.9127 1.59291C17.7217 1.50362 18.552 1.42505 19.3985 1.42505C20.2431 1.42505 21.0735 1.50183 21.8824 1.59291C22.9717 1.71433 23.8467 2.58933 23.9627 3.67862C24.0485 4.48219 24.1235 5.30719 24.1235 6.14826C24.1235 6.99112 24.0485 7.81612 23.9627 8.61969C23.9361 8.8668 23.8698 9.10798 23.7663 9.33398" stroke="#434461" stroke-width="1.71739" stroke-linecap="round" stroke-linejoin="round"/>
<path d="M16.2682 23.1054C20.695 23.1054 23.1843 20.6143 23.1843 16.1876C23.1843 11.7608 20.695 9.27148 16.2682 9.27148C11.8414 9.27148 9.35211 11.759 9.35211 16.1876C9.35211 20.6161 11.8414 23.1036 16.2682 23.1036V23.1054Z" stroke="#434461" stroke-width="1.71739" stroke-linecap="round" stroke-linejoin="round"/>
</g>
<defs>
<clipPath id="clip0_2217_29625">
<rect width="25" height="25" fill="white" transform="translate(0.510986 0.4375)"/>
</clipPath>
</defs>
</svg>
