<svg width="25" height="24" viewBox="0 0 25 24" fill="none" xmlns="http://www.w3.org/2000/svg">
<path d="M18.1082 0.941772C20.1475 1.22707 21.2429 1.493 23.0991 2.15165C22.835 4.10648 22.5708 5.19837 21.8893 7.14263" stroke="#434461" stroke-width="1.79" stroke-linecap="round" stroke-linejoin="round"/>
<path d="M22.2661 2.5885C22.2661 2.5885 16.3452 6.29035 12.2207 7.95108C8.61044 9.40399 2.66846 10.7812 2.66846 10.7812" stroke="#434461" stroke-width="1.79" stroke-linecap="round" stroke-linejoin="round"/>
<path d="M8.70741 22.2631H3.3554C2.46956 22.2631 1.71229 21.6044 1.67002 20.7186C1.64056 20.0984 1.64232 19.4771 1.6753 18.8571C1.7019 18.4519 1.87874 18.0711 2.17123 17.7894C2.46372 17.5076 2.85082 17.3452 3.25678 17.3338C4.58987 17.2749 5.92492 17.2749 7.25802 17.3338C8.09983 17.369 8.79546 18.0153 8.83949 18.8571C8.89937 19.9913 8.8571 21.1149 8.70741 22.2613V22.2631Z" stroke="#434461" stroke-width="1.79" stroke-linecap="round" stroke-linejoin="round"/>
<path d="M15.9243 22.2634H9.02426C8.85209 20.0927 8.82033 17.9132 8.92916 15.7385C8.94842 15.3287 9.11739 14.9403 9.40402 14.6468C9.69066 14.3534 10.075 14.1753 10.4842 14.1464C11.8092 14.0504 13.1394 14.0504 14.4643 14.1464C14.8732 14.1757 15.2571 14.3539 15.5434 14.6474C15.8297 14.9408 15.9984 15.329 16.0176 15.7385C16.127 17.9126 16.0958 20.0915 15.9243 22.2616V22.2634Z" stroke="#434461" stroke-width="1.79" stroke-linecap="round" stroke-linejoin="round"/>
<path d="M21.4737 22.2638H16.2397C16.0561 19.0118 16.0326 15.7528 16.1692 12.4985C16.1822 12.0943 16.3409 11.7084 16.616 11.4119C16.8911 11.1154 17.264 10.9284 17.6662 10.8853C19.0116 10.7462 20.3678 10.7462 21.7132 10.8853C22.5462 10.9681 23.1749 11.6619 23.2101 12.4985C23.3236 15.1976 23.3265 17.9002 23.2189 20.5996C23.1994 21.0482 23.0069 21.4719 22.6819 21.7818C22.3569 22.0918 21.9245 22.2638 21.4754 22.2621L21.4737 22.2638Z" stroke="#434461" stroke-width="1.79" stroke-linecap="round" stroke-linejoin="round"/>
</svg>
