<svg width="33" height="32" viewBox="0 0 33 32" fill="none" xmlns="http://www.w3.org/2000/svg">
<path opacity="0.4" d="M15.5216 28.0008C22.5173 28.0008 28.1883 22.3298 28.1883 15.3341C28.1883 8.33854 22.5173 2.66748 15.5216 2.66748C8.52604 2.66748 2.85498 8.33854 2.85498 15.3341C2.85498 22.3298 8.52604 28.0008 15.5216 28.0008Z" fill="#1E1E1E"/>
<path d="M28.5889 29.3337C28.3489 29.3337 28.1089 29.2404 27.9355 29.0671L25.4555 26.5871C25.0955 26.2271 25.0955 25.6404 25.4555 25.2671C25.8155 24.9071 26.4022 24.9071 26.7755 25.2671L29.2555 27.7471C29.6155 28.1071 29.6155 28.6937 29.2555 29.0671C29.0689 29.2404 28.8289 29.3337 28.5889 29.3337Z" fill="#1E1E1E"/>
</svg>
