<svg width="39" height="39" viewBox="0 0 39 39" fill="none" xmlns="http://www.w3.org/2000/svg">
<path d="M2.48229 28.4885C2.69856 30.4043 3.55748 32.1903 4.919 33.5553C6.28053 34.9203 8.06433 35.7837 9.97954 36.0049C12.8935 36.3317 15.8809 36.6094 18.931 36.6094C21.9811 36.6094 24.9713 36.3317 27.8825 36.0049C29.7977 35.7837 31.5815 34.9203 32.9431 33.5553C34.3046 32.1903 35.1635 30.4043 35.3798 28.4885C35.6902 25.5937 35.9517 22.6198 35.9517 19.5888C35.9517 16.5578 35.6902 13.5839 35.3798 10.6863C35.1635 8.77057 34.3046 6.98458 32.9431 5.6196C31.5815 4.25461 29.7977 3.39115 27.8825 3.17003C24.9686 2.84868 21.9811 2.56818 18.931 2.56818C15.8809 2.56818 12.8907 2.84595 9.97954 3.17275C8.06433 3.39388 6.28053 4.25733 4.919 5.62232C3.55748 6.9873 2.69856 8.77329 2.48229 10.6891C2.17184 13.5812 1.9104 16.555 1.9104 19.5888C1.9104 22.6226 2.17184 25.5937 2.48229 28.4885Z" stroke="#5034FF" stroke-width="2.7233" stroke-linecap="round" stroke-linejoin="round"/>
<path d="M18.9312 27.7588V11.419" stroke="#5034FF" stroke-width="2.7233" stroke-linecap="round" stroke-linejoin="round"/>
<path d="M13.4846 16.8656C13.4846 14.8231 16.2079 12.0998 18.9312 11.419C21.6545 12.0998 24.3778 14.8231 24.3778 16.8656" stroke="#5034FF" stroke-width="2.7233" stroke-linecap="round" stroke-linejoin="round"/>
</svg>
