<svg width="25" height="26" viewBox="0 0 25 26" fill="none" xmlns="http://www.w3.org/2000/svg">
<path d="M18.2313 24.4376C20.2054 24.3914 21.231 24.3087 22.1699 24.1875C22.6102 24.126 23.0156 23.914 23.3173 23.5874C23.6189 23.2609 23.7982 22.8399 23.8246 22.3961C23.9093 21.1551 23.9689 20.4586 24.0055 18.7192" stroke="#434461" stroke-width="1.72" stroke-linecap="round" stroke-linejoin="round"/>
<path d="M6.77146 24.4376C4.79736 24.3914 3.77183 24.3087 2.83288 24.1875C2.39259 24.126 1.98716 23.914 1.6855 23.5874C1.38385 23.2609 1.20458 22.8399 1.17818 22.3961C1.09352 21.1551 1.03387 20.4586 0.997314 18.7192" stroke="#434461" stroke-width="1.72" stroke-linecap="round" stroke-linejoin="round"/>
<path d="M18.2313 1.4375C20.2054 1.48368 21.231 1.56641 22.1699 1.68763C22.6102 1.74908 23.0156 1.96111 23.3173 2.28767C23.6189 2.61423 23.7982 3.03517 23.8246 3.47894C23.9093 4.71997 23.9689 5.41649 24.0055 7.15585" stroke="#434461" stroke-width="1.72" stroke-linecap="round" stroke-linejoin="round"/>
<path d="M6.77146 1.4375C4.79736 1.48368 3.77183 1.56641 2.83288 1.68763C2.39259 1.74908 1.98716 1.96111 1.6855 2.28767C1.38385 2.61423 1.20458 3.03517 1.17818 3.47894C1.09352 4.71997 1.03387 5.41649 0.997314 7.15585" stroke="#434461" stroke-width="1.72" stroke-linecap="round" stroke-linejoin="round"/>
<path d="M18.2736 18.7099L15.9878 16.426" stroke="#434461" stroke-width="1.72" stroke-linecap="round" stroke-linejoin="round"/>
<path d="M12.0203 17.7479C15.4067 17.7479 17.3115 15.8431 17.3115 12.4567C17.3115 9.07036 15.4067 7.16553 12.0203 7.16553C8.63396 7.16553 6.72913 9.07036 6.72913 12.4567C6.72913 15.8431 8.63396 17.7479 12.0203 17.7479Z" stroke="#434461" stroke-width="1.72" stroke-linecap="round" stroke-linejoin="round"/>
</svg>
