<svg width="30" height="30" viewBox="0 0 30 30" fill="none" xmlns="http://www.w3.org/2000/svg">
<g clip-path="url(#clip0_2217_29777)">
<path d="M28.7374 28.7706L24.998 25.0312" stroke="#5034FF" stroke-width="2.72" stroke-linecap="round" stroke-linejoin="round"/>
<path d="M8.55329 12.6098C8.06325 12.6456 7.5648 12.6687 7.06424 12.6687C6.06734 12.6687 5.08936 12.5783 4.13662 12.471C3.51078 12.3985 2.92793 12.1163 2.483 11.6702C2.03808 11.2241 1.75731 10.6406 1.68642 10.0145C1.58547 9.0681 1.50134 8.09643 1.50134 7.10373C1.50134 6.11524 1.58757 5.14147 1.69063 4.19504C1.82523 2.9121 2.85789 1.88155 4.13872 1.73853C5.09146 1.63337 6.06944 1.54083 7.06635 1.54083C8.06325 1.54083 9.04123 1.63127 9.99186 1.73853C11.2748 1.88155 12.3054 2.9121 12.4421 4.19504C12.5451 5.14147 12.6313 6.11314 12.6313 7.10373C12.6313 7.57484 12.6103 8.04175 12.5788 8.50445" stroke="#5034FF" stroke-width="2.72" stroke-linecap="round" stroke-linejoin="round"/>
<path d="M7.06424 17.5314C6.06734 17.5314 5.08936 17.6219 4.13662 17.727C2.85368 17.87 1.82313 18.9027 1.68642 20.1856C1.58547 21.1321 1.50134 22.1037 1.50134 23.0922C1.50134 24.0807 1.58757 25.0545 1.69063 26.0009C1.82523 27.2839 2.85789 28.3144 4.13872 28.4595C5.09146 28.5647 6.06944 28.6572 7.06635 28.6572C8.06325 28.6572 9.04123 28.5647 9.99186 28.4595" stroke="#5034FF" stroke-width="2.72" stroke-linecap="round" stroke-linejoin="round"/>
<path d="M17.0248 7.10385C17.0248 6.11326 17.109 5.14159 17.212 4.19516C17.3487 2.91223 18.3814 1.88167 19.6622 1.73865C20.615 1.63349 21.5929 1.54095 22.5898 1.54095C23.5846 1.54095 24.5626 1.63139 25.5154 1.73865C26.7983 1.88167 27.8289 2.91223 27.9656 4.19516C28.0665 5.14159 28.1548 6.11326 28.1548 7.10385C28.1548 8.09655 28.0665 9.06822 27.9656 10.0146C27.9342 10.3057 27.856 10.5898 27.7342 10.8559" stroke="#5034FF" stroke-width="2.72" stroke-linecap="round" stroke-linejoin="round"/>
<path d="M18.903 27.0757C24.1168 27.0757 27.0486 24.1418 27.0486 18.928C27.0486 13.7142 24.1168 10.7824 18.903 10.7824C13.6892 10.7824 10.7574 13.7121 10.7574 18.928C10.7574 24.1439 13.6892 27.0736 18.903 27.0736V27.0757Z" stroke="#5034FF" stroke-width="2.72" stroke-linecap="round" stroke-linejoin="round"/>
</g>
<defs>
<clipPath id="clip0_2217_29777">
<rect width="29.4445" height="29.4445" fill="white" transform="translate(0.344482 0.377869)"/>
</clipPath>
</defs>
</svg>
